<svg width="51" height="49" viewBox="0 0 51 49" fill="none" xmlns="http://www.w3.org/2000/svg">
<g clip-path="url(#clip0_1516_516)">
<path d="M27.5051 29.5205C26.1391 30.644 24.1284 30.4326 23.0247 29.031C21.9101 27.6405 22.1286 25.5937 23.5055 24.4702C24.8715 23.3355 26.8713 23.558 27.9859 24.9596C28.4667 25.5603 28.6853 26.2722 28.6853 26.9842C28.6853 27.9408 28.2919 28.8864 27.5051 29.5093V29.5205ZM20.0633 35.6386C18.6973 36.7622 16.6866 36.5508 15.5829 35.1492C14.4682 33.7587 14.6868 31.7119 16.0637 30.5884C17.4297 29.4537 19.4404 29.6762 20.5441 31.0778C21.0249 31.6785 21.2435 32.3904 21.2435 33.1024C21.2435 34.059 20.8501 35.0046 20.0633 35.6275V35.6386ZM12.6215 41.7568C11.2555 42.8804 9.24476 42.669 8.14105 41.2674C7.03735 39.8769 7.24498 37.8301 8.62188 36.7065C9.98785 35.5719 11.9986 35.7944 13.1023 37.196C13.5831 37.7967 13.8235 38.5086 13.8235 39.2206C13.8235 40.1661 13.4083 41.1005 12.6324 41.7457L12.6215 41.7568ZM5.17962 47.875C3.82458 48.9986 1.81386 48.7872 0.699229 47.3856C-0.404478 45.9951 -0.19685 43.9483 1.18005 42.8247C2.54603 41.6901 4.55674 41.9126 5.66045 43.3142C6.14127 43.9149 6.38168 44.6268 6.38168 45.3388C6.38168 46.2843 5.96642 47.2187 5.19055 47.8639L5.17962 47.875Z" fill="#6CBE45"/>
<path d="M27.5051 29.5205C26.1391 30.644 24.1284 30.4326 23.0247 29.031C21.9101 27.6405 22.1286 25.5937 23.5055 24.4702C24.8715 23.3355 26.8713 23.558 27.9859 24.9596C28.4667 25.5603 28.6853 26.2722 28.6853 26.9842C28.6853 27.9408 28.2919 28.8864 27.5051 29.5093V29.5205ZM20.0633 35.6386C18.6973 36.7622 16.6866 36.5508 15.5829 35.1492C14.4682 33.7587 14.6868 31.7119 16.0637 30.5884C17.4297 29.4537 19.4404 29.6762 20.5441 31.0778C21.0249 31.6785 21.2435 32.3904 21.2435 33.1024C21.2435 34.059 20.8501 35.0046 20.0633 35.6275V35.6386ZM12.6215 41.7568C11.2555 42.8804 9.24476 42.669 8.14105 41.2674C7.03735 39.8769 7.24498 37.8301 8.62188 36.7065C9.98785 35.5719 11.9986 35.7944 13.1023 37.196C13.5831 37.7967 13.8235 38.5086 13.8235 39.2206C13.8235 40.1661 13.4083 41.1005 12.6324 41.7457L12.6215 41.7568ZM5.17962 47.875C3.82458 48.9986 1.81386 48.7872 0.699229 47.3856C-0.404478 45.9951 -0.19685 43.9483 1.18005 42.8247C2.54603 41.6901 4.55674 41.9126 5.66045 43.3142C6.14127 43.9149 6.38168 44.6268 6.38168 45.3388C6.38168 46.2843 5.96642 47.2187 5.19055 47.8639L5.17962 47.875Z" fill="#6CBE45"/>
<path d="M22.3146 26.9953C22.3146 26.2834 22.5331 25.5715 23.014 24.9708C24.1286 23.5803 26.1174 23.3467 27.4943 24.4813C28.8603 25.6048 29.0898 27.6405 27.9752 29.0421C26.8715 30.4326 24.8717 30.644 23.4948 29.5316C22.7189 28.8975 22.3146 27.9631 22.3146 27.0064V26.9953ZM29.7564 33.1135C29.7564 32.4016 29.975 31.6896 30.4558 31.0889C31.5595 29.6985 33.5593 29.4648 34.9362 30.5995C36.3021 31.723 36.5316 33.7587 35.417 35.1603C34.3133 36.5508 32.3135 36.7622 30.9366 35.6498C30.1607 35.0157 29.7564 34.0813 29.7564 33.1246V33.1135ZM37.1764 39.2206C37.1764 38.5086 37.4168 37.7967 37.8976 37.196C39.0013 35.8055 41.0011 35.5719 42.378 36.7066C43.744 37.8301 43.9516 39.8658 42.8588 41.2674C41.7551 42.6579 39.7553 42.8692 38.3784 41.7568C37.6026 41.1117 37.1873 40.1661 37.1873 39.2317L37.1764 39.2206ZM44.6182 45.3388C44.6182 44.6268 44.8586 43.9149 45.3394 43.3142C46.4431 41.9237 48.4429 41.6901 49.8198 42.8248C51.1858 43.9483 51.3934 45.984 50.3006 47.3856C49.186 48.7761 47.1753 48.9874 45.8203 47.875C45.0444 47.2298 44.6291 46.2843 44.6291 45.3499L44.6182 45.3388Z" fill="#6CBE45"/>
<path d="M27.5051 6.3603C26.1391 7.48382 24.1284 7.27246 23.0247 5.87084C21.9101 4.48034 22.1286 2.43353 23.5055 1.31001C24.8715 0.175362 26.8713 0.397841 27.9859 1.79946C28.4667 2.40016 28.6853 3.11209 28.6853 3.82403C28.6853 4.78069 28.2919 5.72623 27.5051 6.34917V6.3603ZM20.0633 12.4674C18.6973 13.5909 16.6866 13.3795 15.5829 11.9779C14.4682 10.5874 14.6868 8.5406 16.0637 7.41708C17.4297 6.28243 19.4404 6.50491 20.5441 7.90653C21.0249 8.50723 21.2435 9.21916 21.2435 9.9311C21.2435 10.8878 20.8501 11.8333 20.0633 12.4562V12.4674ZM12.6215 18.5856C11.2555 19.7091 9.24476 19.4977 8.14105 18.0961C7.03735 16.7056 7.24498 14.6588 8.62188 13.5353C9.98785 12.4006 11.9986 12.6231 13.1023 14.0247C13.5831 14.6254 13.8235 15.3374 13.8235 16.0493C13.8235 16.9948 13.4083 17.9292 12.6324 18.5744L12.6215 18.5856ZM5.17962 24.7038C3.82458 25.8273 1.81386 25.6159 0.699229 24.2143C-0.404478 22.8238 -0.19685 20.777 1.18005 19.6535C2.54603 18.5188 4.55674 18.7413 5.66045 20.1429C6.14127 20.7436 6.38168 21.4555 6.38168 22.1675C6.38168 23.113 5.96642 24.0474 5.19055 24.6926L5.17962 24.7038Z" fill="#6CBE45"/>
<path d="M27.5051 6.3603C26.1391 7.48382 24.1284 7.27246 23.0247 5.87084C21.9101 4.48034 22.1286 2.43353 23.5055 1.31001C24.8715 0.175362 26.8713 0.397841 27.9859 1.79946C28.4667 2.40016 28.6853 3.11209 28.6853 3.82403C28.6853 4.78069 28.2919 5.72623 27.5051 6.34917V6.3603ZM20.0633 12.4674C18.6973 13.5909 16.6866 13.3795 15.5829 11.9779C14.4682 10.5874 14.6868 8.5406 16.0637 7.41708C17.4297 6.28243 19.4404 6.50491 20.5441 7.90653C21.0249 8.50723 21.2435 9.21916 21.2435 9.9311C21.2435 10.8878 20.8501 11.8333 20.0633 12.4562V12.4674ZM12.6215 18.5856C11.2555 19.7091 9.24476 19.4977 8.14105 18.0961C7.03735 16.7056 7.24498 14.6588 8.62188 13.5353C9.98785 12.4006 11.9986 12.6231 13.1023 14.0247C13.5831 14.6254 13.8235 15.3374 13.8235 16.0493C13.8235 16.9948 13.4083 17.9292 12.6324 18.5744L12.6215 18.5856ZM5.17962 24.7038C3.82458 25.8273 1.81386 25.6159 0.699229 24.2143C-0.404478 22.8238 -0.19685 20.777 1.18005 19.6535C2.54603 18.5188 4.55674 18.7413 5.66045 20.1429C6.14127 20.7436 6.38168 21.4555 6.38168 22.1675C6.38168 23.113 5.96642 24.0474 5.19055 24.6926L5.17962 24.7038Z" fill="#6CBE45"/>
<path d="M22.3146 3.82393C22.3146 3.112 22.5331 2.40006 23.014 1.79937C24.1286 0.408871 26.1174 0.175267 27.4943 1.30991C28.8603 2.43344 29.0898 4.46913 27.9752 5.87075C26.8715 7.26125 24.8717 7.4726 23.4948 6.3602C22.7189 5.72614 22.3146 4.79172 22.3146 3.83506V3.82393ZM29.7564 9.94213C29.7564 9.23019 29.975 8.51826 30.4558 7.91756C31.5595 6.52706 33.5593 6.29346 34.9362 7.42811C36.3021 8.55163 36.5316 10.5873 35.417 11.9889C34.3133 13.3794 32.3135 13.5908 30.9366 12.4784C30.1607 11.8443 29.7564 10.9099 29.7564 9.95325V9.94213ZM37.1764 16.0603C37.1764 15.3484 37.4168 14.6364 37.8976 14.0358C39.0013 12.6453 41.0011 12.4116 42.378 13.5463C43.744 14.6698 43.9516 16.7055 42.8588 18.1071C41.7551 19.4976 39.7553 19.709 38.3784 18.5966C37.6026 17.9514 37.1873 17.0059 37.1873 16.0603H37.1764ZM44.6182 22.1674C44.6182 21.4555 44.8586 20.7435 45.3394 20.1428C46.4431 18.7523 48.4429 18.5187 49.8198 19.6534C51.1858 20.7769 51.3934 22.8126 50.3006 24.2142C49.186 25.6047 47.1753 25.8161 45.8203 24.7037C45.0444 24.0585 44.6291 23.1129 44.6291 22.1785L44.6182 22.1674Z" fill="#6CBE45"/>
</g>
<defs>
<clipPath id="clip0_1516_516">
<rect width="51" height="48" fill="white" transform="translate(0 0.586914)"/>
</clipPath>
</defs>
</svg>
