<?xml version="1.0" encoding="UTF-8"?> <svg xmlns="http://www.w3.org/2000/svg" width="284" height="53" viewBox="0 0 284 53" fill="none"><mask id="mask0_1210_288" style="mask-type:luminance" maskUnits="userSpaceOnUse" x="0" y="0" width="284" height="53"><path d="M283.895 0H0V53H283.895V0Z" fill="white"></path></mask><g mask="url(#mask0_1210_288)"><path d="M15.5403 40.7742C10.4084 40.7742 6.86668 36.6048 6.86668 31.5876V31.5168C6.86668 26.4996 10.4807 22.4008 15.5403 22.4008C18.5039 22.4008 20.8892 23.6728 23.2022 25.7222L27.3945 20.9876C24.6478 18.3022 21.2506 16.4648 15.6126 16.4648C6.433 16.5356 0 23.3196 0 31.5876V31.6582C0 40.0676 6.50528 46.6396 15.3235 46.6396C21.106 46.6396 24.5032 44.6608 27.5391 41.4102L23.3467 37.3116C21.0338 39.4316 18.9375 40.7742 15.5403 40.7742Z" fill="#FCB900"></path><path d="M37.6567 28.3375V23.8149H31.1514V46.1455H37.6567V37.9482C37.6567 32.5775 40.331 30.0335 44.5956 30.0335H44.957V23.3909C41.1261 23.2495 38.9577 25.2989 37.6567 28.3375Z" fill="#FCB900"></path><path d="M57.896 23.4617C51.2461 23.4617 46.6201 28.6909 46.6201 35.1217V35.1923C46.6201 42.0469 51.6798 46.7109 58.5466 46.7109C62.6665 46.7109 65.7746 45.1563 67.8707 42.5417L64.1844 39.3617C62.3774 40.9869 60.7872 41.6229 58.6188 41.6229C55.7276 41.6229 53.7037 40.1389 53.0531 37.2417H68.955C69.0273 36.6763 69.0273 36.0403 69.0273 35.5457C69.0273 29.2563 65.4855 23.4617 57.896 23.4617ZM52.9086 33.2843C53.4146 30.3869 55.1494 28.5497 57.8237 28.5497C60.5704 28.5497 62.2329 30.4577 62.6665 33.2843H52.9086Z" fill="#FCB900"></path><path d="M89.7038 26.7825C88.186 25.0159 86.0175 23.4612 82.5481 23.4612C77.127 23.4612 72.1396 27.5599 72.1396 34.9799V35.0505C72.1396 42.5412 77.1993 46.5692 82.5481 46.5692C85.9453 46.5692 88.1136 45.0145 89.7038 42.9652V46.1452H96.2091V15.7585H89.7038V26.7825ZM89.7761 35.0505C89.7761 38.7959 87.2463 41.1985 84.2105 41.1985C81.1747 41.1985 78.6449 38.7252 78.6449 35.0505V34.9799C78.6449 31.2345 81.1747 28.8319 84.2105 28.8319C87.2463 28.8319 89.7761 31.3052 89.7761 34.9799V35.0505Z" fill="#FCB900"></path><path d="M108.06 15.7585H101.265V21.4119H108.06V15.7585Z" fill="#FCB900"></path><path d="M107.914 23.8857H101.409V46.2164H107.914V23.8857Z" fill="#FCB900"></path><path d="M121.432 18.1619H114.927V23.8859H112.18V29.3271H114.927V39.9271C114.927 45.0859 117.601 46.6405 121.576 46.6405C123.745 46.6405 125.335 46.1459 126.708 45.3685V40.2805C125.769 40.7751 124.685 41.0579 123.528 41.0579C122.082 41.0579 121.432 40.3511 121.432 38.8671V29.2565H126.781V23.8151H121.432V18.1619Z" fill="#FCB900"></path><path d="M145.211 28.7615C140.08 27.4895 138.778 26.8535 138.778 24.9455V24.8747C138.778 23.4615 140.08 22.3307 142.609 22.3307C145.139 22.3307 147.741 23.3907 150.343 25.2281L153.74 20.4227C150.705 18.0201 147.018 16.6775 142.682 16.6775C136.61 16.6775 132.201 20.2107 132.201 25.4401V25.5107C132.201 31.3055 136.104 32.9307 142.103 34.4147C147.09 35.6867 148.103 36.5347 148.103 38.1601V38.2307C148.103 39.9267 146.513 40.9867 143.765 40.9867C140.368 40.9867 137.549 39.6441 134.875 37.4535L130.971 41.9761C134.586 45.0855 139.14 46.6401 143.621 46.6401C150.054 46.6401 154.608 43.3895 154.608 37.5947V37.5241C154.68 32.4361 151.211 30.3161 145.211 28.7615Z" fill="white"></path><path d="M166.752 18.1619H160.248V23.8859H157.573V29.3272H160.319V39.9272C160.319 45.0859 162.994 46.6406 166.969 46.6406C169.138 46.6406 170.728 46.1459 172.102 45.3685V40.2806C171.162 40.7752 170.077 41.0579 168.921 41.0579C167.475 41.0579 166.824 40.3512 166.824 38.8672V29.2566H172.174V23.8152H166.824V18.1619H166.752Z" fill="white"></path><path d="M183.958 28.3375V23.8149H177.452V46.1455H183.958V37.9483C183.958 32.5775 186.632 30.0335 190.896 30.0335H191.257V23.3909C187.426 23.2495 185.258 25.2989 183.958 28.3375Z" fill="white"></path><path d="M211.567 35.0511V35.1217C211.567 38.4431 209.327 41.1991 205.64 41.1991C202.027 41.1991 199.641 38.3017 199.641 35.0511V34.9805C199.641 31.8711 201.593 29.1857 204.99 28.9031C206.146 27.5605 207.665 25.7937 209.327 23.8857C208.171 23.6031 206.941 23.3911 205.64 23.3911C198.485 23.3911 193.208 28.6205 193.208 35.0511V35.1217C193.208 41.5525 198.485 46.6405 205.568 46.6405C212.652 46.6405 218 41.4111 218 34.9805V34.9097C218 32.3657 217.206 30.1045 215.76 28.1965C214.098 30.8817 212.579 33.2845 211.567 34.8391C211.567 34.9805 211.567 35.0511 211.567 35.0511Z" fill="white"></path><path d="M234.837 23.4617C231.584 23.4617 229.633 25.1577 228.116 27.0657V23.8857H221.61V46.2163H228.116V33.7789C228.116 30.7403 229.705 29.2563 232.163 29.2563C234.62 29.2563 236.066 30.8109 236.066 33.7789V46.2163H242.571V31.7297C242.571 26.6417 239.753 23.4617 234.837 23.4617Z" fill="white"></path><path d="M263.822 23.8857V26.7829C262.088 24.8749 259.992 23.4617 256.45 23.4617C251.174 23.4617 246.33 27.2069 246.33 33.9203C246.33 40.5629 251.174 44.3789 256.45 44.3789C259.919 44.3789 262.015 43.0363 263.894 40.7749V41.8349C263.894 45.8629 261.798 47.9123 257.39 47.9123C254.354 47.9123 252.04 47.1349 249.655 45.8629L247.415 50.5977C250.306 52.0817 253.776 52.9297 257.533 52.9297C261.943 52.9297 265.268 52.0109 267.364 49.9617C269.316 48.0537 270.255 45.1563 270.255 41.1989V23.8857H263.822ZM263.894 33.9203C263.894 36.9589 261.437 39.0789 258.329 39.0789C255.148 39.0789 252.763 36.9589 252.763 33.9203V33.8497C252.763 30.8109 255.148 28.6909 258.329 28.6909C261.509 28.6909 263.894 30.8109 263.894 33.8497V33.9203Z" fill="white"></path><path d="M224.359 8.76266C224.719 8.76266 225.009 8.83334 225.226 9.04534C226.382 9.89334 225.876 11.1653 223.925 14.628C225.659 16.324 227.033 18.3026 227.972 20.4934H237.802C234.55 8.62134 223.419 0 209.179 0C194.94 0 183.809 8.692 180.412 20.4934H190.242C193.206 13.6386 200.289 8.76266 209.108 8.76266C213.299 8.76266 217.13 9.89334 220.239 11.7307C223.347 8.76266 223.853 8.76266 224.359 8.76266Z" fill="#FCB900"></path><path d="M224.433 10.105C224.361 10.105 224.288 10.105 224.216 10.1756C224.216 10.1756 224.144 10.1756 224.144 10.2463C224.072 10.2463 224.071 10.317 223.999 10.317C223.927 10.317 223.927 10.3876 223.855 10.3876C223.782 10.4583 223.71 10.4583 223.638 10.529C223.565 10.5996 223.493 10.5996 223.493 10.6703C223.421 10.741 223.348 10.8116 223.276 10.8116C223.204 10.8823 223.132 10.953 223.059 11.0236C222.987 11.0943 222.916 11.165 222.842 11.165C222.482 11.5183 222.048 11.9423 221.614 12.3663L221.542 12.4369C221.397 12.5783 221.253 12.7197 221.108 12.8609C221.036 12.9317 220.963 13.0023 220.891 13.0729C220.747 13.2143 220.602 13.3557 220.457 13.4969C220.385 13.5677 220.313 13.6383 220.313 13.7089C219.808 14.2743 219.229 14.8397 218.723 15.4049C218.651 15.4757 218.651 15.5463 218.578 15.5463C218.434 15.7583 218.217 15.8997 218.072 16.1117C218 16.1823 217.928 16.2529 217.855 16.3237C217.711 16.5357 217.494 16.6769 217.349 16.8889C217.277 16.9597 217.205 17.0303 217.132 17.1009C216.555 17.7369 215.976 18.3729 215.398 19.0797C215.326 19.1503 215.253 19.2917 215.181 19.3623C215.036 19.5743 214.82 19.7157 214.675 19.9277C214.603 20.0689 214.458 20.1397 214.386 20.2809C214.241 20.4929 214.024 20.6343 213.88 20.8463C213.807 20.9169 213.735 21.0583 213.664 21.1289C213.373 21.4823 213.085 21.7649 212.796 22.1183C212.651 22.2597 212.507 22.4009 212.362 22.6129C212.218 22.7543 212.073 22.8957 212.001 23.0369C211.856 23.1783 211.711 23.3197 211.639 23.4609C211.495 23.6023 211.35 23.7437 211.278 23.8849C211.133 24.0263 211.061 24.1677 210.916 24.3089C210.844 24.3797 210.844 24.3797 210.771 24.4503C210.699 24.5209 210.627 24.6623 210.482 24.7329C210.265 25.0157 209.977 25.2983 209.76 25.5809C209.688 25.6517 209.616 25.7223 209.543 25.8637C209.399 26.0757 209.182 26.2877 209.037 26.4289C208.965 26.4997 208.82 26.6409 208.748 26.7117C208.603 26.9237 208.386 27.0649 208.242 27.2769C208.17 27.3477 208.097 27.4183 208.097 27.4889C207.88 27.7009 207.663 27.9129 207.519 28.1957L207.446 28.2663C207.231 28.4783 207.086 28.6903 206.869 28.9023L206.797 28.9729L206.724 29.0437C206.58 29.2557 206.363 29.4677 206.218 29.6089L206.146 29.6797C206.001 29.8917 205.857 30.0329 205.712 30.1743L205.64 30.2449C205.351 30.5983 205.061 30.9517 204.845 31.2343C204.845 31.2343 204.845 31.2343 204.772 31.3049C204.7 31.4463 204.628 31.5169 204.555 31.5877L204.483 31.6583C204.412 31.7289 204.412 31.7997 204.338 31.8703C204.338 31.8703 204.338 31.9409 204.266 31.9409C204.195 32.0117 204.195 32.0823 204.121 32.0823C202.532 34.2023 201.809 36.2517 203.978 37.8063C204.628 38.2303 205.206 38.4423 205.712 38.4423C207.014 38.4423 208.17 37.3117 209.326 35.7569C209.326 35.7569 209.399 35.6863 209.471 35.6157C209.471 35.6157 209.471 35.5449 209.543 35.5449C209.616 35.4743 209.616 35.4037 209.688 35.3329L209.76 35.2623C209.833 35.1917 209.905 35.0503 209.977 34.9089C210.049 34.7677 210.194 34.5557 210.339 34.4143C210.482 34.2023 210.556 34.0609 210.699 33.8489L210.771 33.7783C210.916 33.5663 211.061 33.3543 211.205 33.1423C211.278 33.0717 211.35 32.9303 211.422 32.7889C211.711 32.3649 211.928 31.9409 212.218 31.5169C212.218 31.4463 212.29 31.4463 212.29 31.3757C212.434 31.1637 212.579 30.8809 212.724 30.6689C212.796 30.5983 212.796 30.5277 212.868 30.4569C213.23 29.8209 213.664 29.1849 214.096 28.5489C214.169 28.4783 214.169 28.4077 214.241 28.3369C214.386 28.0543 214.53 27.8423 214.747 27.5597C214.82 27.4183 214.892 27.3477 214.964 27.2063C214.964 27.1357 215.036 27.1357 215.036 27.0649C215.181 26.8529 215.253 26.7117 215.398 26.4997C215.47 26.3583 215.543 26.2877 215.615 26.1463C215.832 25.8637 215.976 25.5103 216.193 25.2277C216.266 25.0863 216.409 24.9449 216.483 24.8037C216.626 24.5917 216.698 24.3797 216.843 24.2383C216.915 24.0969 217.06 23.8849 217.132 23.7437C217.277 23.6023 217.349 23.3903 217.421 23.2489C217.494 23.1077 217.638 22.8957 217.711 22.7543C217.855 22.5423 218 22.3303 218.072 22.1183C218.217 21.9063 218.289 21.6943 218.434 21.4823C218.578 21.2703 218.723 20.9877 218.868 20.7757C219.012 20.5637 219.084 20.4223 219.229 20.2103C219.301 20.0689 219.446 19.9277 219.517 19.7863C219.663 19.5743 219.734 19.4329 219.879 19.2209C219.951 19.0797 220.023 18.9383 220.096 18.7969C220.24 18.5849 220.313 18.4437 220.457 18.2317C220.53 18.0903 220.602 18.0197 220.674 17.8783C220.891 17.5249 221.036 17.1717 221.253 16.8889C221.325 16.7477 221.397 16.6063 221.47 16.4649C221.542 16.3237 221.686 16.1117 221.759 15.9703C221.831 15.8289 221.903 15.6877 221.976 15.6169C222.048 15.4757 222.193 15.2637 222.265 15.1223C222.337 14.9809 222.408 14.8397 222.482 14.7689C222.625 14.5569 222.77 14.2743 222.842 14.0623C222.916 13.9209 222.987 13.8503 223.059 13.7089C223.059 13.7089 223.059 13.7089 223.059 13.6383C223.132 13.4969 223.204 13.2849 223.348 13.1437C223.421 13.0729 223.421 13.0023 223.493 12.8609C223.565 12.7197 223.638 12.5783 223.71 12.4369C223.782 12.3663 223.782 12.2956 223.855 12.225C223.927 12.0836 223.999 11.9423 224.072 11.8716C224.144 11.801 224.144 11.7303 224.216 11.6596C224.288 11.589 224.288 11.4476 224.361 11.377C224.361 11.3063 224.433 11.2356 224.433 11.165C224.433 11.0943 224.505 11.0236 224.505 10.953C224.505 10.8823 224.578 10.8116 224.578 10.741C224.578 10.6703 224.65 10.5996 224.65 10.5996C224.65 10.529 224.65 10.4583 224.65 10.4583V10.3876C224.505 10.1756 224.433 10.105 224.433 10.105Z" fill="white"></path><path d="M278.943 28.3483C278.405 28.3483 277.883 28.2653 277.377 28.0993C276.873 27.9289 276.419 27.6909 276.008 27.3851C275.603 27.0793 275.247 26.7256 274.938 26.3238C274.635 25.9175 274.399 25.4633 274.232 24.9609C274.064 24.4587 273.98 23.9411 273.98 23.4082C273.98 22.7443 274.11 22.1088 274.369 21.5016C274.635 20.8945 274.987 20.3704 275.427 19.9291C275.872 19.488 276.4 19.1386 277.012 18.8809C277.63 18.6188 278.273 18.4878 278.943 18.4878C279.612 18.4878 280.253 18.6188 280.865 18.8809C281.478 19.1386 282.003 19.488 282.444 19.9291C282.889 20.3704 283.242 20.8945 283.501 21.5016C283.765 22.1088 283.898 22.7443 283.898 23.4082C283.898 24.0721 283.765 24.7099 283.501 25.3213C283.242 25.9328 282.889 26.4591 282.444 26.9002C282.003 27.3415 281.478 27.693 280.865 27.9552C280.253 28.2172 279.612 28.3483 278.943 28.3483ZM278.929 27.5948C279.673 27.5948 280.358 27.407 280.984 27.0314C281.614 26.6514 282.109 26.1425 282.471 25.5047C282.832 24.867 283.013 24.1748 283.013 23.4279C283.013 22.6853 282.832 21.9974 282.471 21.3641C282.109 20.7264 281.614 20.2219 280.984 19.8505C280.358 19.4749 279.673 19.2871 278.929 19.2871C278.185 19.2871 277.497 19.4749 276.867 19.8505C276.242 20.2219 275.749 20.7264 275.387 21.3641C275.026 21.9974 274.845 22.6853 274.845 23.4279C274.845 24.1748 275.026 24.867 275.387 25.5047C275.749 26.1425 276.242 26.6514 276.867 27.0314C277.497 27.407 278.185 27.5948 278.929 27.5948ZM278.136 23.0414H278.731C279.162 23.0414 279.484 22.9933 279.695 22.8971C279.907 22.7967 280.012 22.6111 280.012 22.3403C280.012 22.0257 279.942 21.8293 279.802 21.7506C279.66 21.672 279.343 21.6327 278.85 21.6327H278.136V23.0414ZM276.709 26.3041V20.532H278.81C279.712 20.532 280.373 20.6783 280.792 20.9709C281.215 21.2592 281.427 21.6895 281.427 22.2616C281.427 23.109 281.036 23.6375 280.257 23.8472L281.499 26.3041H279.947L278.943 24.0765H278.129V26.3041H276.709Z" fill="white"></path></g></svg> 