<?xml version="1.0" encoding="UTF-8"?> <svg xmlns="http://www.w3.org/2000/svg" width="261" height="256" viewBox="0 0 261 256" fill="none"><path d="M85.0678 122.603C85.9572 122.603 86.8852 122.526 87.8518 122.371C88.8185 122.178 89.5338 121.927 89.9978 121.617V121.095C89.9978 120.941 89.9978 120.786 89.9978 120.631C90.0365 120.477 90.0558 120.341 90.0558 120.225C90.0172 118.833 89.9012 117.538 89.7078 116.339C89.5145 115.102 89.1858 114.039 88.7218 113.149C88.2578 112.221 87.6198 111.506 86.8078 111.003C86.0345 110.462 85.0678 110.191 83.9078 110.191C82.9798 110.191 82.1678 110.385 81.4718 110.771C80.7758 111.158 80.2152 111.661 79.7898 112.279C79.3645 112.898 79.0358 113.575 78.8038 114.309C78.6105 115.044 78.5138 115.759 78.5138 116.455C78.5138 118.543 79.0165 120.09 80.0218 121.095C81.0658 122.101 82.7478 122.603 85.0678 122.603ZM89.3018 128.229C88.4898 128.616 87.5812 128.906 86.5758 129.099C85.6092 129.254 84.7778 129.331 84.0818 129.331C81.5685 129.331 79.4225 129.041 77.6438 128.461C75.8652 127.843 74.3958 126.992 73.2358 125.909C72.1145 124.788 71.2832 123.454 70.7418 121.907C70.2005 120.361 69.9298 118.659 69.9298 116.803C69.9298 115.257 70.1812 113.671 70.6838 112.047C71.2252 110.423 72.0565 108.954 73.1778 107.639C74.2992 106.286 75.7105 105.184 77.4118 104.333C79.1518 103.444 81.2398 102.999 83.6758 102.999C88.6638 102.999 92.4145 104.546 94.9278 107.639C97.4798 110.694 98.7558 115.102 98.7558 120.863C98.7558 124.653 98.2532 127.997 97.2478 130.897C96.2812 133.797 94.7538 136.233 92.6658 138.205C90.6165 140.177 87.9872 141.685 84.7778 142.729C81.5685 143.735 77.7598 144.257 73.3518 144.295C73.3132 143.058 73.2552 141.859 73.1778 140.699C73.1005 139.539 73.0232 138.341 72.9458 137.103C75.1498 137.065 77.1412 136.91 78.9198 136.639C80.6985 136.33 82.2645 135.847 83.6178 135.189C84.9712 134.493 86.1118 133.585 87.0398 132.463C88.0065 131.342 88.7605 129.931 89.3018 128.229ZM131.083 123.995C131.083 130.762 129.787 135.963 127.197 139.597C124.645 143.193 121.107 144.991 116.583 144.991C112.059 144.991 108.501 143.193 105.911 139.597C103.359 135.963 102.083 130.762 102.083 123.995C102.083 120.631 102.411 117.654 103.069 115.063C103.765 112.473 104.751 110.288 106.027 108.509C107.303 106.731 108.83 105.377 110.609 104.449C112.387 103.521 114.379 103.057 116.583 103.057C121.107 103.057 124.645 104.875 127.197 108.509C129.787 112.105 131.083 117.267 131.083 123.995ZM122.267 123.995C122.267 121.985 122.17 120.167 121.977 118.543C121.783 116.881 121.474 115.45 121.049 114.251C120.623 113.053 120.043 112.125 119.309 111.467C118.574 110.81 117.665 110.481 116.583 110.481C115.5 110.481 114.591 110.81 113.857 111.467C113.161 112.125 112.581 113.053 112.117 114.251C111.691 115.45 111.382 116.881 111.189 118.543C110.995 120.167 110.899 121.985 110.899 123.995C110.899 126.006 110.995 127.843 111.189 129.505C111.382 131.168 111.691 132.599 112.117 133.797C112.581 134.996 113.161 135.924 113.857 136.581C114.591 137.239 115.5 137.567 116.583 137.567C117.665 137.567 118.574 137.239 119.309 136.581C120.043 135.924 120.623 134.996 121.049 133.797C121.474 132.599 121.783 131.168 121.977 129.505C122.17 127.843 122.267 126.006 122.267 123.995ZM154.478 114.309C154.478 117.944 153.55 120.728 151.694 122.661C149.838 124.595 147.344 125.561 144.212 125.561C141.08 125.561 138.586 124.595 136.73 122.661C134.874 120.728 133.946 117.944 133.946 114.309C133.946 110.675 134.874 107.891 136.73 105.957C138.586 104.024 141.08 103.057 144.212 103.057C147.344 103.057 149.838 104.024 151.694 105.957C153.55 107.891 154.478 110.675 154.478 114.309ZM147.924 114.309C147.924 112.337 147.576 110.907 146.88 110.017C146.184 109.128 145.294 108.683 144.212 108.683C143.09 108.683 142.182 109.128 141.486 110.017C140.828 110.907 140.5 112.337 140.5 114.309C140.5 116.281 140.828 117.731 141.486 118.659C142.182 119.549 143.09 119.993 144.212 119.993C145.294 119.993 146.184 119.549 146.88 118.659C147.576 117.731 147.924 116.281 147.924 114.309ZM165.788 103.985H173.85L151.172 144.179H143.11L165.788 103.985ZM183.13 133.855C183.13 137.49 182.202 140.274 180.346 142.207C178.49 144.141 175.996 145.107 172.864 145.107C169.732 145.107 167.238 144.141 165.382 142.207C163.526 140.274 162.598 137.49 162.598 133.855C162.598 130.221 163.526 127.437 165.382 125.503C167.238 123.57 169.732 122.603 172.864 122.603C175.996 122.603 178.49 123.57 180.346 125.503C182.202 127.437 183.13 130.221 183.13 133.855ZM176.576 133.855C176.576 131.883 176.228 130.453 175.532 129.563C174.836 128.674 173.946 128.229 172.864 128.229C171.742 128.229 170.834 128.674 170.138 129.563C169.48 130.453 169.152 131.883 169.152 133.855C169.152 135.827 169.48 137.277 170.138 138.205C170.834 139.095 171.742 139.539 172.864 139.539C173.946 139.539 174.836 139.095 175.532 138.205C176.228 137.277 176.576 135.827 176.576 133.855Z" fill="#282A39"></path><path d="M92.4465 163.479H95.5665V177.339H92.4465V163.479ZM104.355 171.759C104.355 170.799 104.228 170.119 103.975 169.719C103.735 169.319 103.315 169.119 102.715 169.119C102.528 169.119 102.335 169.133 102.135 169.159C101.935 169.173 101.741 169.193 101.555 169.219V177.339H98.5746V167.179C98.8279 167.113 99.1213 167.046 99.4546 166.979C99.8013 166.899 100.161 166.833 100.535 166.779C100.921 166.713 101.315 166.666 101.715 166.639C102.115 166.599 102.508 166.579 102.895 166.579C103.655 166.579 104.268 166.679 104.735 166.879C105.215 167.066 105.608 167.293 105.915 167.559C106.341 167.253 106.828 167.013 107.375 166.839C107.935 166.666 108.448 166.579 108.915 166.579C109.755 166.579 110.441 166.699 110.975 166.939C111.521 167.166 111.955 167.493 112.275 167.919C112.595 168.346 112.815 168.853 112.935 169.439C113.055 170.026 113.115 170.679 113.115 171.399V177.339H110.135V171.759C110.135 170.799 110.008 170.119 109.755 169.719C109.515 169.319 109.095 169.119 108.495 169.119C108.335 169.119 108.108 169.159 107.815 169.239C107.535 169.319 107.301 169.419 107.115 169.539C107.208 169.846 107.268 170.173 107.295 170.519C107.321 170.853 107.335 171.213 107.335 171.599V177.339H104.355V171.759ZM122.561 172.159C122.561 171.239 122.354 170.506 121.941 169.959C121.527 169.399 120.914 169.119 120.101 169.119C119.834 169.119 119.587 169.133 119.361 169.159C119.134 169.173 118.947 169.193 118.801 169.219V174.599C118.987 174.719 119.227 174.819 119.521 174.899C119.827 174.979 120.134 175.019 120.441 175.019C121.854 175.019 122.561 174.066 122.561 172.159ZM125.601 172.079C125.601 172.893 125.501 173.633 125.301 174.299C125.101 174.966 124.807 175.539 124.421 176.019C124.034 176.499 123.554 176.873 122.981 177.139C122.407 177.406 121.747 177.539 121.001 177.539C120.587 177.539 120.201 177.499 119.841 177.419C119.481 177.339 119.134 177.226 118.801 177.079V181.039H115.821V167.179C116.087 167.099 116.394 167.026 116.741 166.959C117.087 166.879 117.447 166.813 117.821 166.759C118.207 166.706 118.594 166.666 118.981 166.639C119.381 166.599 119.761 166.579 120.121 166.579C120.987 166.579 121.761 166.713 122.441 166.979C123.121 167.233 123.694 167.599 124.161 168.079C124.627 168.546 124.981 169.119 125.221 169.799C125.474 170.479 125.601 171.239 125.601 172.079ZM131.911 175.259C132.204 175.259 132.484 175.253 132.751 175.239C133.018 175.226 133.231 175.206 133.391 175.179V172.919C133.271 172.893 133.091 172.866 132.851 172.839C132.611 172.813 132.391 172.799 132.191 172.799C131.911 172.799 131.644 172.819 131.391 172.859C131.151 172.886 130.938 172.946 130.751 173.039C130.564 173.133 130.418 173.259 130.311 173.419C130.204 173.579 130.151 173.779 130.151 174.019C130.151 174.486 130.304 174.813 130.611 174.999C130.931 175.173 131.364 175.259 131.911 175.259ZM131.671 166.539C132.551 166.539 133.284 166.639 133.871 166.839C134.458 167.039 134.924 167.326 135.271 167.699C135.631 168.073 135.884 168.526 136.031 169.059C136.178 169.593 136.251 170.186 136.251 170.839V177.039C135.824 177.133 135.231 177.239 134.471 177.359C133.711 177.493 132.791 177.559 131.711 177.559C131.031 177.559 130.411 177.499 129.851 177.379C129.304 177.259 128.831 177.066 128.431 176.799C128.031 176.519 127.724 176.159 127.511 175.719C127.298 175.279 127.191 174.739 127.191 174.099C127.191 173.486 127.311 172.966 127.551 172.539C127.804 172.113 128.138 171.773 128.551 171.519C128.964 171.266 129.438 171.086 129.971 170.979C130.504 170.859 131.058 170.799 131.631 170.799C132.018 170.799 132.358 170.819 132.651 170.859C132.958 170.886 133.204 170.926 133.391 170.979V170.699C133.391 170.193 133.238 169.786 132.931 169.479C132.624 169.173 132.091 169.019 131.331 169.019C130.824 169.019 130.324 169.059 129.831 169.139C129.338 169.206 128.911 169.306 128.551 169.439L128.171 167.039C128.344 166.986 128.558 166.933 128.811 166.879C129.078 166.813 129.364 166.759 129.671 166.719C129.978 166.666 130.298 166.626 130.631 166.599C130.978 166.559 131.324 166.539 131.671 166.539ZM138.446 172.079C138.446 171.319 138.566 170.606 138.806 169.939C139.059 169.259 139.419 168.673 139.886 168.179C140.352 167.673 140.919 167.273 141.586 166.979C142.252 166.686 143.012 166.539 143.866 166.539C144.426 166.539 144.939 166.593 145.406 166.699C145.872 166.793 146.326 166.933 146.766 167.119L146.146 169.499C145.866 169.393 145.559 169.299 145.226 169.219C144.892 169.139 144.519 169.099 144.106 169.099C143.226 169.099 142.566 169.373 142.126 169.919C141.699 170.466 141.486 171.186 141.486 172.079C141.486 173.026 141.686 173.759 142.086 174.279C142.499 174.799 143.212 175.059 144.226 175.059C144.586 175.059 144.972 175.026 145.386 174.959C145.799 174.893 146.179 174.786 146.526 174.639L146.946 177.079C146.599 177.226 146.166 177.353 145.646 177.459C145.126 177.566 144.552 177.619 143.926 177.619C142.966 177.619 142.139 177.479 141.446 177.199C140.752 176.906 140.179 176.513 139.726 176.019C139.286 175.526 138.959 174.946 138.746 174.279C138.546 173.599 138.446 172.866 138.446 172.079ZM148.846 164.199L151.826 163.719V166.819H155.406V169.299H151.826V172.999C151.826 173.626 151.932 174.126 152.146 174.499C152.372 174.873 152.819 175.059 153.486 175.059C153.806 175.059 154.132 175.033 154.466 174.979C154.812 174.913 155.126 174.826 155.406 174.719L155.826 177.039C155.466 177.186 155.066 177.313 154.626 177.419C154.186 177.526 153.646 177.579 153.006 177.579C152.192 177.579 151.519 177.473 150.986 177.259C150.452 177.033 150.026 176.726 149.706 176.339C149.386 175.939 149.159 175.459 149.026 174.899C148.906 174.339 148.846 173.719 148.846 173.039V164.199ZM89.8195 202.339V188.479H99.0995V191.099H92.9395V193.999H98.4195V196.619H92.9395V202.339H89.8195ZM104.636 200.259C104.929 200.259 105.209 200.253 105.476 200.239C105.742 200.226 105.956 200.206 106.116 200.179V197.919C105.996 197.893 105.816 197.866 105.576 197.839C105.336 197.813 105.116 197.799 104.916 197.799C104.636 197.799 104.369 197.819 104.116 197.859C103.876 197.886 103.662 197.946 103.476 198.039C103.289 198.133 103.142 198.259 103.036 198.419C102.929 198.579 102.876 198.779 102.876 199.019C102.876 199.486 103.029 199.813 103.336 199.999C103.656 200.173 104.089 200.259 104.636 200.259ZM104.396 191.539C105.276 191.539 106.009 191.639 106.596 191.839C107.182 192.039 107.649 192.326 107.996 192.699C108.356 193.073 108.609 193.526 108.756 194.059C108.902 194.593 108.976 195.186 108.976 195.839V202.039C108.549 202.133 107.956 202.239 107.196 202.359C106.436 202.493 105.516 202.559 104.436 202.559C103.756 202.559 103.136 202.499 102.576 202.379C102.029 202.259 101.556 202.066 101.156 201.799C100.756 201.519 100.449 201.159 100.236 200.719C100.022 200.279 99.9156 199.739 99.9156 199.099C99.9156 198.486 100.036 197.966 100.276 197.539C100.529 197.113 100.862 196.773 101.276 196.519C101.689 196.266 102.162 196.086 102.696 195.979C103.229 195.859 103.782 195.799 104.356 195.799C104.742 195.799 105.082 195.819 105.376 195.859C105.682 195.886 105.929 195.926 106.116 195.979V195.699C106.116 195.193 105.962 194.786 105.656 194.479C105.349 194.173 104.816 194.019 104.056 194.019C103.549 194.019 103.049 194.059 102.556 194.139C102.062 194.206 101.636 194.306 101.276 194.439L100.896 192.039C101.069 191.986 101.282 191.933 101.536 191.879C101.802 191.813 102.089 191.759 102.396 191.719C102.702 191.666 103.022 191.626 103.356 191.599C103.702 191.559 104.049 191.539 104.396 191.539ZM111.17 197.079C111.17 196.319 111.29 195.606 111.53 194.939C111.784 194.259 112.144 193.673 112.61 193.179C113.077 192.673 113.644 192.273 114.31 191.979C114.977 191.686 115.737 191.539 116.59 191.539C117.15 191.539 117.664 191.593 118.13 191.699C118.597 191.793 119.05 191.933 119.49 192.119L118.87 194.499C118.59 194.393 118.284 194.299 117.95 194.219C117.617 194.139 117.244 194.099 116.83 194.099C115.95 194.099 115.29 194.373 114.85 194.919C114.424 195.466 114.21 196.186 114.21 197.079C114.21 198.026 114.41 198.759 114.81 199.279C115.224 199.799 115.937 200.059 116.95 200.059C117.31 200.059 117.697 200.026 118.11 199.959C118.524 199.893 118.904 199.786 119.25 199.639L119.67 202.079C119.324 202.226 118.89 202.353 118.37 202.459C117.85 202.566 117.277 202.619 116.65 202.619C115.69 202.619 114.864 202.479 114.17 202.199C113.477 201.906 112.904 201.513 112.45 201.019C112.01 200.526 111.684 199.946 111.47 199.279C111.27 198.599 111.17 197.866 111.17 197.079ZM121.57 189.199L124.55 188.719V191.819H128.13V194.299H124.55V197.999C124.55 198.626 124.657 199.126 124.87 199.499C125.097 199.873 125.544 200.059 126.21 200.059C126.53 200.059 126.857 200.033 127.19 199.979C127.537 199.913 127.85 199.826 128.13 199.719L128.55 202.039C128.19 202.186 127.79 202.313 127.35 202.419C126.91 202.526 126.37 202.579 125.73 202.579C124.917 202.579 124.244 202.473 123.71 202.259C123.177 202.033 122.75 201.726 122.43 201.339C122.11 200.939 121.884 200.459 121.75 199.899C121.63 199.339 121.57 198.719 121.57 198.039V189.199ZM140.006 197.059C140.006 197.886 139.886 198.646 139.646 199.339C139.406 200.019 139.06 200.606 138.606 201.099C138.153 201.579 137.606 201.953 136.966 202.219C136.34 202.486 135.633 202.619 134.846 202.619C134.073 202.619 133.366 202.486 132.726 202.219C132.1 201.953 131.56 201.579 131.106 201.099C130.653 200.606 130.3 200.019 130.046 199.339C129.793 198.646 129.666 197.886 129.666 197.059C129.666 196.233 129.793 195.479 130.046 194.799C130.313 194.119 130.673 193.539 131.126 193.059C131.593 192.579 132.14 192.206 132.766 191.939C133.406 191.673 134.1 191.539 134.846 191.539C135.606 191.539 136.3 191.673 136.926 191.939C137.566 192.206 138.113 192.579 138.566 193.059C139.02 193.539 139.373 194.119 139.626 194.799C139.88 195.479 140.006 196.233 140.006 197.059ZM136.966 197.059C136.966 196.139 136.78 195.419 136.406 194.899C136.046 194.366 135.526 194.099 134.846 194.099C134.166 194.099 133.64 194.366 133.266 194.899C132.893 195.419 132.706 196.139 132.706 197.059C132.706 197.979 132.893 198.713 133.266 199.259C133.64 199.793 134.166 200.059 134.846 200.059C135.526 200.059 136.046 199.793 136.406 199.259C136.78 198.713 136.966 197.979 136.966 197.059ZM148.655 194.459C148.388 194.393 148.075 194.326 147.715 194.259C147.355 194.179 146.968 194.139 146.555 194.139C146.368 194.139 146.142 194.159 145.875 194.199C145.622 194.226 145.428 194.259 145.295 194.299V202.339H142.315V192.379C142.848 192.193 143.475 192.019 144.195 191.859C144.928 191.686 145.742 191.599 146.635 191.599C146.795 191.599 146.988 191.613 147.215 191.639C147.442 191.653 147.668 191.679 147.895 191.719C148.122 191.746 148.348 191.786 148.575 191.839C148.802 191.879 148.995 191.933 149.155 191.999L148.655 194.459ZM153.772 200.199C154.319 200.199 154.706 200.146 154.932 200.039C155.159 199.933 155.272 199.726 155.272 199.419C155.272 199.179 155.126 198.973 154.832 198.799C154.539 198.613 154.092 198.406 153.492 198.179C153.026 198.006 152.599 197.826 152.212 197.639C151.839 197.453 151.519 197.233 151.252 196.979C150.986 196.713 150.779 196.399 150.632 196.039C150.486 195.679 150.412 195.246 150.412 194.739C150.412 193.753 150.779 192.973 151.512 192.399C152.246 191.826 153.252 191.539 154.532 191.539C155.172 191.539 155.786 191.599 156.372 191.719C156.959 191.826 157.426 191.946 157.772 192.079L157.252 194.399C156.906 194.279 156.526 194.173 156.112 194.079C155.712 193.986 155.259 193.939 154.752 193.939C153.819 193.939 153.352 194.199 153.352 194.719C153.352 194.839 153.372 194.946 153.412 195.039C153.452 195.133 153.532 195.226 153.652 195.319C153.772 195.399 153.932 195.493 154.132 195.599C154.346 195.693 154.612 195.799 154.932 195.919C155.586 196.159 156.126 196.399 156.552 196.639C156.979 196.866 157.312 197.119 157.552 197.399C157.806 197.666 157.979 197.966 158.072 198.299C158.179 198.633 158.232 199.019 158.232 199.459C158.232 200.499 157.839 201.286 157.052 201.819C156.279 202.353 155.179 202.619 153.752 202.619C152.819 202.619 152.039 202.539 151.412 202.379C150.799 202.219 150.372 202.086 150.132 201.979L150.632 199.559C151.139 199.759 151.659 199.919 152.192 200.039C152.726 200.146 153.252 200.199 153.772 200.199Z" fill="#445670"></path><path d="M74.6659 83.1362V69.2762H83.9459V71.8962H77.7859V74.7962H83.2659V77.4162H77.7859V83.1362H74.6659ZM86.1503 69.2762H89.2703V83.1362H86.1503V69.2762ZM98.7984 83.4162C96.5451 83.4162 94.8251 82.7896 93.6384 81.5362C92.4651 80.2829 91.8784 78.5029 91.8784 76.1962C91.8784 75.0496 92.0584 74.0296 92.4184 73.1362C92.7784 72.2296 93.2718 71.4696 93.8984 70.8562C94.5251 70.2296 95.2718 69.7562 96.1384 69.4362C97.0051 69.1162 97.9451 68.9562 98.9584 68.9562C99.5451 68.9562 100.078 69.0029 100.558 69.0962C101.038 69.1762 101.458 69.2762 101.818 69.3962C102.178 69.5029 102.478 69.6162 102.718 69.7362C102.958 69.8562 103.132 69.9496 103.238 70.0162L102.338 72.5362C101.912 72.3096 101.412 72.1162 100.838 71.9562C100.278 71.7962 99.6384 71.7162 98.9184 71.7162C98.4384 71.7162 97.9651 71.7962 97.4984 71.9562C97.0451 72.1162 96.6384 72.3762 96.2784 72.7362C95.9318 73.0829 95.6518 73.5362 95.4384 74.0962C95.2251 74.6562 95.1184 75.3362 95.1184 76.1362C95.1184 76.7762 95.1851 77.3762 95.3184 77.9362C95.4651 78.4829 95.6918 78.9562 95.9984 79.3562C96.3184 79.7562 96.7318 80.0762 97.2384 80.3162C97.7451 80.5429 98.3584 80.6562 99.0784 80.6562C99.5318 80.6562 99.9384 80.6296 100.298 80.5762C100.658 80.5229 100.978 80.4629 101.258 80.3962C101.538 80.3162 101.785 80.2296 101.998 80.1362C102.212 80.0429 102.405 79.9562 102.578 79.8762L103.438 82.3762C102.998 82.6429 102.378 82.8829 101.578 83.0962C100.778 83.3096 99.8518 83.4162 98.7984 83.4162ZM107.559 76.1962C107.559 76.8762 107.639 77.4896 107.799 78.0362C107.973 78.5829 108.213 79.0562 108.519 79.4562C108.839 79.8429 109.226 80.1429 109.679 80.3562C110.133 80.5696 110.653 80.6762 111.239 80.6762C111.813 80.6762 112.326 80.5696 112.779 80.3562C113.246 80.1429 113.633 79.8429 113.939 79.4562C114.259 79.0562 114.499 78.5829 114.659 78.0362C114.833 77.4896 114.919 76.8762 114.919 76.1962C114.919 75.5162 114.833 74.9029 114.659 74.3562C114.499 73.7962 114.259 73.3229 113.939 72.9362C113.633 72.5362 113.246 72.2296 112.779 72.0162C112.326 71.8029 111.813 71.6962 111.239 71.6962C110.653 71.6962 110.133 71.8096 109.679 72.0362C109.226 72.2496 108.839 72.5562 108.519 72.9562C108.213 73.3429 107.973 73.8162 107.799 74.3762C107.639 74.9229 107.559 75.5296 107.559 76.1962ZM118.139 76.1962C118.139 77.3829 117.959 78.4296 117.599 79.3362C117.253 80.2296 116.773 80.9829 116.159 81.5962C115.546 82.1962 114.813 82.6496 113.959 82.9562C113.119 83.2629 112.213 83.4162 111.239 83.4162C110.293 83.4162 109.399 83.2629 108.559 82.9562C107.719 82.6496 106.986 82.1962 106.359 81.5962C105.733 80.9829 105.239 80.2296 104.879 79.3362C104.519 78.4296 104.339 77.3829 104.339 76.1962C104.339 75.0096 104.526 73.9696 104.899 73.0762C105.273 72.1696 105.773 71.4096 106.399 70.7962C107.039 70.1829 107.773 69.7229 108.599 69.4162C109.439 69.1096 110.319 68.9562 111.239 68.9562C112.186 68.9562 113.079 69.1096 113.919 69.4162C114.759 69.7229 115.493 70.1829 116.119 70.7962C116.746 71.4096 117.239 72.1696 117.599 73.0762C117.959 73.9696 118.139 75.0096 118.139 76.1962ZM128.365 80.9962C128.912 80.9962 129.298 80.9429 129.525 80.8362C129.752 80.7296 129.865 80.5229 129.865 80.2162C129.865 79.9762 129.718 79.7696 129.425 79.5962C129.132 79.4096 128.685 79.2029 128.085 78.9762C127.618 78.8029 127.192 78.6229 126.805 78.4362C126.432 78.2496 126.112 78.0296 125.845 77.7762C125.578 77.5096 125.372 77.1962 125.225 76.8362C125.078 76.4762 125.005 76.0429 125.005 75.5362C125.005 74.5496 125.372 73.7696 126.105 73.1962C126.838 72.6229 127.845 72.3362 129.125 72.3362C129.765 72.3362 130.378 72.3962 130.965 72.5162C131.552 72.6229 132.018 72.7429 132.365 72.8762L131.845 75.1962C131.498 75.0762 131.118 74.9696 130.705 74.8762C130.305 74.7829 129.852 74.7362 129.345 74.7362C128.412 74.7362 127.945 74.9962 127.945 75.5162C127.945 75.6362 127.965 75.7429 128.005 75.8362C128.045 75.9296 128.125 76.0229 128.245 76.1162C128.365 76.1962 128.525 76.2896 128.725 76.3962C128.938 76.4896 129.205 76.5962 129.525 76.7162C130.178 76.9562 130.718 77.1962 131.145 77.4362C131.572 77.6629 131.905 77.9162 132.145 78.1962C132.398 78.4629 132.572 78.7629 132.665 79.0962C132.772 79.4296 132.825 79.8162 132.825 80.2562C132.825 81.2962 132.432 82.0829 131.645 82.6162C130.872 83.1496 129.772 83.4162 128.345 83.4162C127.412 83.4162 126.632 83.3362 126.005 83.1762C125.392 83.0162 124.965 82.8829 124.725 82.7762L125.225 80.3562C125.732 80.5562 126.252 80.7162 126.785 80.8362C127.318 80.9429 127.845 80.9962 128.365 80.9962ZM134.552 77.8762C134.552 77.1162 134.672 76.4029 134.912 75.7362C135.165 75.0562 135.525 74.4696 135.992 73.9762C136.459 73.4696 137.025 73.0696 137.692 72.7762C138.359 72.4829 139.119 72.3362 139.972 72.3362C140.532 72.3362 141.045 72.3896 141.512 72.4962C141.979 72.5896 142.432 72.7296 142.872 72.9162L142.252 75.2962C141.972 75.1896 141.665 75.0962 141.332 75.0162C140.999 74.9362 140.625 74.8962 140.212 74.8962C139.332 74.8962 138.672 75.1696 138.232 75.7162C137.805 76.2629 137.592 76.9829 137.592 77.8762C137.592 78.8229 137.792 79.5562 138.192 80.0762C138.605 80.5962 139.319 80.8562 140.332 80.8562C140.692 80.8562 141.079 80.8229 141.492 80.7562C141.905 80.6896 142.285 80.5829 142.632 80.4362L143.052 82.8762C142.705 83.0229 142.272 83.1496 141.752 83.2562C141.232 83.3629 140.659 83.4162 140.032 83.4162C139.072 83.4162 138.245 83.2762 137.552 82.9962C136.859 82.7029 136.285 82.3096 135.832 81.8162C135.392 81.3229 135.065 80.7429 134.852 80.0762C134.652 79.3962 134.552 78.6629 134.552 77.8762ZM154.384 77.8562C154.384 78.6829 154.264 79.4429 154.024 80.1362C153.784 80.8162 153.437 81.4029 152.984 81.8962C152.531 82.3762 151.984 82.7496 151.344 83.0162C150.717 83.2829 150.011 83.4162 149.224 83.4162C148.451 83.4162 147.744 83.2829 147.104 83.0162C146.477 82.7496 145.937 82.3762 145.484 81.8962C145.031 81.4029 144.677 80.8162 144.424 80.1362C144.171 79.4429 144.044 78.6829 144.044 77.8562C144.044 77.0296 144.171 76.2762 144.424 75.5962C144.691 74.9162 145.051 74.3362 145.504 73.8562C145.971 73.3762 146.517 73.0029 147.144 72.7362C147.784 72.4696 148.477 72.3362 149.224 72.3362C149.984 72.3362 150.677 72.4696 151.304 72.7362C151.944 73.0029 152.491 73.3762 152.944 73.8562C153.397 74.3362 153.751 74.9162 154.004 75.5962C154.257 76.2762 154.384 77.0296 154.384 77.8562ZM151.344 77.8562C151.344 76.9362 151.157 76.2162 150.784 75.6962C150.424 75.1629 149.904 74.8962 149.224 74.8962C148.544 74.8962 148.017 75.1629 147.644 75.6962C147.271 76.2162 147.084 76.9362 147.084 77.8562C147.084 78.7762 147.271 79.5096 147.644 80.0562C148.017 80.5896 148.544 80.8562 149.224 80.8562C149.904 80.8562 150.424 80.5896 150.784 80.0562C151.157 79.5096 151.344 78.7762 151.344 77.8562ZM163.033 75.2562C162.766 75.1896 162.453 75.1229 162.093 75.0562C161.733 74.9762 161.346 74.9362 160.933 74.9362C160.746 74.9362 160.519 74.9562 160.253 74.9962C159.999 75.0229 159.806 75.0562 159.673 75.0962V83.1362H156.693V73.1762C157.226 72.9896 157.853 72.8162 158.573 72.6562C159.306 72.4829 160.119 72.3962 161.013 72.3962C161.173 72.3962 161.366 72.4096 161.593 72.4362C161.819 72.4496 162.046 72.4762 162.273 72.5162C162.499 72.5429 162.726 72.5829 162.953 72.6362C163.179 72.6762 163.373 72.7296 163.533 72.7962L163.033 75.2562ZM164.435 77.9562C164.435 77.0229 164.575 76.2096 164.855 75.5162C165.148 74.8096 165.528 74.2229 165.995 73.7562C166.461 73.2896 166.995 72.9362 167.595 72.6962C168.208 72.4562 168.835 72.3362 169.475 72.3362C170.968 72.3362 172.148 72.7962 173.015 73.7162C173.881 74.6229 174.315 75.9629 174.315 77.7362C174.315 77.9096 174.308 78.1029 174.295 78.3162C174.281 78.5162 174.268 78.6962 174.255 78.8562H167.495C167.561 79.4696 167.848 79.9562 168.355 80.3162C168.861 80.6762 169.541 80.8562 170.395 80.8562C170.941 80.8562 171.475 80.8096 171.995 80.7162C172.528 80.6096 172.961 80.4829 173.295 80.3362L173.695 82.7562C173.535 82.8362 173.321 82.9162 173.055 82.9962C172.788 83.0762 172.488 83.1429 172.155 83.1962C171.835 83.2629 171.488 83.3162 171.115 83.3562C170.741 83.3962 170.368 83.4162 169.995 83.4162C169.048 83.4162 168.221 83.2762 167.515 82.9962C166.821 82.7162 166.241 82.3362 165.775 81.8562C165.321 81.3629 164.981 80.7829 164.755 80.1162C164.541 79.4496 164.435 78.7296 164.435 77.9562ZM171.435 76.8162C171.421 76.5629 171.375 76.3162 171.295 76.0762C171.228 75.8362 171.115 75.6229 170.955 75.4362C170.808 75.2496 170.615 75.0962 170.375 74.9762C170.148 74.8562 169.861 74.7962 169.515 74.7962C169.181 74.7962 168.895 74.8562 168.655 74.9762C168.415 75.0829 168.215 75.2296 168.055 75.4162C167.895 75.6029 167.768 75.8229 167.675 76.0762C167.595 76.3162 167.535 76.5629 167.495 76.8162H171.435Z" fill="#3084C6" fill-opacity="0.8"></path><g clip-path="url(#clip0_1161_323)"><path opacity="0.1" d="M124.815 226.732C177.337 226.732 219.915 184.154 219.915 131.632C219.915 79.1097 177.337 36.532 124.815 36.532C72.2926 36.532 29.7148 79.1097 29.7148 131.632C29.7148 184.154 72.2926 226.732 124.815 226.732Z" fill="black"></path><path d="M212.295 207.092C170.615 255.412 97.6646 260.792 49.3446 219.112C40.7546 211.702 33.5146 203.292 27.6646 194.222" stroke="#3084C7" stroke-width="17.35" stroke-miterlimit="10"></path><path d="M24.5648 189.062C7.30476 158.982 5.04476 124.052 15.8048 93.3521" stroke="#FF9903" stroke-width="17.35" stroke-miterlimit="10"></path><path d="M17.8848 87.8921C25.9848 68.0821 38.9648 51.7321 54.8548 39.6621" stroke="#F4CD00" stroke-width="17.35" stroke-miterlimit="10"></path><path d="M60.7349 35.492C78.5449 23.622 98.4449 17.352 118.375 16.252" stroke="#AAAAAA" stroke-width="17.35" stroke-miterlimit="10"></path><path d="M124.815 16.042C127.185 16.042 129.545 16.112 131.885 16.252C192.425 19.902 240.405 70.162 240.405 131.622C240.405 159.022 230.875 184.192 214.945 203.992" stroke="#7DBE45" stroke-width="17.35" stroke-miterlimit="10"></path></g><defs><clipPath id="clip0_1161_323"><rect width="248.48" height="248.47" fill="white" transform="translate(0.594727 7.37207)"></rect></clipPath></defs></svg> 