<?xml version="1.0" encoding="UTF-8"?> <svg xmlns="http://www.w3.org/2000/svg" width="255" height="255" viewBox="0 0 255 255" fill="none"><g clip-path="url(#clip0_417_96)"><g opacity="0.1"><path d="M119.439 228.212C170.574 228.212 212.027 186.749 212.027 135.602C212.027 84.4555 170.574 42.9927 119.439 42.9927C68.3046 42.9927 26.8516 84.4555 26.8516 135.602C26.8516 186.749 68.3046 228.212 119.439 228.212Z" fill="black"></path></g><path d="M226.806 218.391L202.79 199.851C217.097 181.311 224.662 159.083 224.662 135.592C224.662 77.5573 177.451 30.3354 119.43 30.3354V0C194.183 0 255 60.8312 255 135.602C255 165.868 245.251 194.5 226.806 218.401V218.391Z" fill="url(#paint0_linear_417_96)"></path><path d="M119.36 255C91.717 255 63.9637 245.479 41.4404 226.048C32.7437 218.541 25.1992 209.883 19.0273 200.312L30.6998 192.786C36.1502 201.244 42.8131 208.891 50.5078 215.535C71.8488 233.955 99.0912 242.954 127.205 240.88C155.319 238.805 180.938 225.907 199.354 204.551L209.874 213.631C186.289 240.98 152.915 255.01 119.36 255.01V255Z" fill="#3084C7"></path><path d="M15.8112 194.981C-1.44197 164.916 -4.74832 128.838 6.75378 96.0271L19.859 100.617C9.69944 129.63 12.615 161.498 27.8543 188.066L15.8112 194.981Z" fill="#FF9903"></path><path d="M21.7512 95.6363L8.89648 90.3749C16.982 70.6023 30.1974 53.3551 47.1199 40.5074L55.5161 51.5713C40.5673 62.9157 28.8949 78.1586 21.7512 95.6263V95.6363Z" fill="#F4CD00"></path><path d="M60.9079 47.763L53.2031 36.1981C70.9773 24.3525 91.5769 17.4677 112.798 16.3052L113.559 30.1751C94.8231 31.2073 76.6181 37.2804 60.9079 47.753V47.763Z" fill="#AAAAAA"></path><path d="M75.5298 145.049C74.4858 145.049 73.3838 144.972 72.2238 144.817C71.0638 144.701 69.9425 144.527 68.8598 144.295C67.7772 144.063 66.7912 143.812 65.9018 143.541C65.0125 143.271 64.3165 143.019 63.8138 142.787L65.4958 135.595C66.5012 136.021 67.7772 136.485 69.3238 136.987C70.9092 137.451 72.8618 137.683 75.1818 137.683C77.8498 137.683 79.8025 137.181 81.0398 136.175C82.2772 135.17 82.8958 133.817 82.8958 132.115C82.8958 131.071 82.6638 130.201 82.1998 129.505C81.7745 128.771 81.1752 128.191 80.4018 127.765C79.6285 127.301 78.7005 126.992 77.6178 126.837C76.5738 126.644 75.4525 126.547 74.2538 126.547H70.8898V119.587H74.7178C75.5685 119.587 76.3805 119.51 77.1538 119.355C77.9658 119.201 78.6812 118.949 79.2998 118.601C79.9185 118.215 80.4018 117.712 80.7498 117.093C81.1365 116.436 81.3298 115.624 81.3298 114.657C81.3298 113.923 81.1752 113.285 80.8658 112.743C80.5565 112.202 80.1505 111.757 79.6478 111.409C79.1838 111.061 78.6232 110.81 77.9658 110.655C77.3472 110.462 76.7092 110.365 76.0518 110.365C74.3892 110.365 72.8425 110.617 71.4118 111.119C70.0198 111.622 68.7438 112.241 67.5838 112.975L64.5098 106.653C65.1285 106.267 65.8438 105.861 66.6558 105.435C67.5065 105.01 68.4345 104.623 69.4398 104.275C70.4452 103.927 71.5085 103.637 72.6298 103.405C73.7898 103.173 75.0078 103.057 76.2838 103.057C78.6425 103.057 80.6725 103.347 82.3738 103.927C84.1138 104.469 85.5445 105.261 86.6658 106.305C87.7872 107.311 88.6185 108.509 89.1598 109.901C89.7012 111.255 89.9718 112.743 89.9718 114.367C89.9718 115.953 89.5272 117.499 88.6378 119.007C87.7485 120.477 86.5498 121.598 85.0418 122.371C87.1298 123.222 88.7345 124.498 89.8558 126.199C91.0158 127.862 91.5958 129.873 91.5958 132.231C91.5958 134.087 91.2865 135.808 90.6678 137.393C90.0492 138.94 89.0825 140.293 87.7678 141.453C86.4532 142.575 84.7712 143.464 82.7218 144.121C80.7112 144.74 78.3138 145.049 75.5298 145.049ZM114.991 132.347C114.991 131.226 114.739 130.24 114.237 129.389C113.734 128.5 112.864 127.765 111.627 127.185C110.389 126.605 108.727 126.161 106.639 125.851C104.551 125.542 101.921 125.387 98.7507 125.387C99.176 121.791 99.524 118.137 99.7947 114.425C100.065 110.713 100.278 107.233 100.433 103.985H122.183V111.235H107.683C107.605 112.627 107.509 113.981 107.393 115.295C107.315 116.571 107.219 117.693 107.103 118.659C112.748 119.046 116.905 120.38 119.573 122.661C122.279 124.904 123.633 128.036 123.633 132.057C123.633 133.913 123.304 135.634 122.647 137.219C121.989 138.805 121.003 140.177 119.689 141.337C118.374 142.497 116.711 143.406 114.701 144.063C112.729 144.721 110.409 145.049 107.741 145.049C106.697 145.049 105.595 144.972 104.435 144.817C103.313 144.701 102.211 144.527 101.129 144.295C100.085 144.102 99.1373 143.889 98.2867 143.657C97.436 143.425 96.7787 143.193 96.3147 142.961L97.8807 135.827C98.8473 136.253 100.123 136.678 101.709 137.103C103.294 137.49 105.189 137.683 107.393 137.683C110.061 137.683 111.994 137.161 113.193 136.117C114.391 135.035 114.991 133.778 114.991 132.347ZM148.478 114.309C148.478 117.944 147.55 120.728 145.694 122.661C143.838 124.595 141.344 125.561 138.212 125.561C135.08 125.561 132.586 124.595 130.73 122.661C128.874 120.728 127.946 117.944 127.946 114.309C127.946 110.675 128.874 107.891 130.73 105.957C132.586 104.024 135.08 103.057 138.212 103.057C141.344 103.057 143.838 104.024 145.694 105.957C147.55 107.891 148.478 110.675 148.478 114.309ZM141.924 114.309C141.924 112.337 141.576 110.907 140.88 110.017C140.184 109.128 139.294 108.683 138.212 108.683C137.09 108.683 136.182 109.128 135.486 110.017C134.828 110.907 134.5 112.337 134.5 114.309C134.5 116.281 134.828 117.731 135.486 118.659C136.182 119.549 137.09 119.993 138.212 119.993C139.294 119.993 140.184 119.549 140.88 118.659C141.576 117.731 141.924 116.281 141.924 114.309ZM159.788 103.985H167.85L145.172 144.179H137.11L159.788 103.985ZM177.13 133.855C177.13 137.49 176.202 140.274 174.346 142.207C172.49 144.141 169.996 145.107 166.864 145.107C163.732 145.107 161.238 144.141 159.382 142.207C157.526 140.274 156.598 137.49 156.598 133.855C156.598 130.221 157.526 127.437 159.382 125.503C161.238 123.57 163.732 122.603 166.864 122.603C169.996 122.603 172.49 123.57 174.346 125.503C176.202 127.437 177.13 130.221 177.13 133.855ZM170.576 133.855C170.576 131.883 170.228 130.453 169.532 129.563C168.836 128.674 167.946 128.229 166.864 128.229C165.742 128.229 164.834 128.674 164.138 129.563C163.48 130.453 163.152 131.883 163.152 133.855C163.152 135.827 163.48 137.277 164.138 138.205C164.834 139.095 165.742 139.539 166.864 139.539C167.946 139.539 168.836 139.095 169.532 138.205C170.228 137.277 170.576 135.827 170.576 133.855Z" fill="#282A39"></path><path d="M81.4952 163.319C83.5618 163.319 85.1485 163.686 86.2552 164.419C87.3618 165.139 87.9152 166.326 87.9152 167.979C87.9152 169.646 87.3552 170.853 86.2352 171.599C85.1152 172.333 83.5152 172.699 81.4352 172.699H80.4552V177.339H77.3352V163.679C78.0152 163.546 78.7352 163.453 79.4952 163.399C80.2552 163.346 80.9218 163.319 81.4952 163.319ZM81.6952 165.979C81.4685 165.979 81.2418 165.986 81.0152 165.999C80.8018 166.013 80.6152 166.026 80.4552 166.039V170.039H81.4352C82.5152 170.039 83.3285 169.893 83.8752 169.599C84.4218 169.306 84.6952 168.759 84.6952 167.959C84.6952 167.573 84.6218 167.253 84.4752 166.999C84.3418 166.746 84.1418 166.546 83.8752 166.399C83.6218 166.239 83.3085 166.133 82.9352 166.079C82.5618 166.013 82.1485 165.979 81.6952 165.979ZM93.6356 175.259C93.929 175.259 94.209 175.253 94.4756 175.239C94.7423 175.226 94.9556 175.206 95.1156 175.179V172.919C94.9956 172.893 94.8156 172.866 94.5756 172.839C94.3356 172.813 94.1156 172.799 93.9156 172.799C93.6356 172.799 93.369 172.819 93.1156 172.859C92.8756 172.886 92.6623 172.946 92.4756 173.039C92.289 173.133 92.1423 173.259 92.0356 173.419C91.929 173.579 91.8756 173.779 91.8756 174.019C91.8756 174.486 92.029 174.813 92.3356 174.999C92.6556 175.173 93.089 175.259 93.6356 175.259ZM93.3956 166.539C94.2756 166.539 95.009 166.639 95.5956 166.839C96.1823 167.039 96.649 167.326 96.9956 167.699C97.3556 168.073 97.609 168.526 97.7556 169.059C97.9023 169.593 97.9756 170.186 97.9756 170.839V177.039C97.549 177.133 96.9556 177.239 96.1956 177.359C95.4356 177.493 94.5156 177.559 93.4356 177.559C92.7556 177.559 92.1356 177.499 91.5756 177.379C91.029 177.259 90.5556 177.066 90.1556 176.799C89.7556 176.519 89.449 176.159 89.2356 175.719C89.0223 175.279 88.9156 174.739 88.9156 174.099C88.9156 173.486 89.0356 172.966 89.2756 172.539C89.529 172.113 89.8623 171.773 90.2756 171.519C90.689 171.266 91.1623 171.086 91.6956 170.979C92.229 170.859 92.7823 170.799 93.3556 170.799C93.7423 170.799 94.0823 170.819 94.3756 170.859C94.6823 170.886 94.929 170.926 95.1156 170.979V170.699C95.1156 170.193 94.9623 169.786 94.6556 169.479C94.349 169.173 93.8156 169.019 93.0556 169.019C92.549 169.019 92.049 169.059 91.5556 169.139C91.0623 169.206 90.6356 169.306 90.2756 169.439L89.8956 167.039C90.069 166.986 90.2823 166.933 90.5356 166.879C90.8023 166.813 91.089 166.759 91.3956 166.719C91.7023 166.666 92.0223 166.626 92.3556 166.599C92.7023 166.559 93.049 166.539 93.3956 166.539ZM109.756 166.819C109.156 168.846 108.53 170.746 107.876 172.519C107.223 174.293 106.51 176.013 105.736 177.679C105.456 178.279 105.176 178.786 104.896 179.199C104.616 179.626 104.31 179.973 103.976 180.239C103.643 180.519 103.263 180.719 102.836 180.839C102.423 180.973 101.936 181.039 101.376 181.039C100.91 181.039 100.476 180.993 100.076 180.899C99.6897 180.819 99.3697 180.726 99.1164 180.619L99.6364 178.239C99.9431 178.346 100.216 178.419 100.456 178.459C100.696 178.499 100.95 178.519 101.216 178.519C101.75 178.519 102.156 178.373 102.436 178.079C102.73 177.799 102.976 177.406 103.176 176.899C102.496 175.566 101.816 174.073 101.136 172.419C100.456 170.753 99.8164 168.886 99.2164 166.819H102.376C102.51 167.339 102.663 167.906 102.836 168.519C103.023 169.119 103.216 169.733 103.416 170.359C103.616 170.973 103.816 171.573 104.016 172.159C104.23 172.746 104.43 173.279 104.616 173.759C104.79 173.279 104.97 172.746 105.156 172.159C105.343 171.573 105.523 170.973 105.696 170.359C105.883 169.733 106.056 169.119 106.216 168.519C106.39 167.906 106.543 167.339 106.676 166.819H109.756ZM117.134 171.759C117.134 170.799 117.007 170.119 116.754 169.719C116.514 169.319 116.094 169.119 115.494 169.119C115.307 169.119 115.114 169.133 114.914 169.159C114.714 169.173 114.521 169.193 114.334 169.219V177.339H111.354V167.179C111.607 167.113 111.901 167.046 112.234 166.979C112.581 166.899 112.941 166.833 113.314 166.779C113.701 166.713 114.094 166.666 114.494 166.639C114.894 166.599 115.287 166.579 115.674 166.579C116.434 166.579 117.047 166.679 117.514 166.879C117.994 167.066 118.387 167.293 118.694 167.559C119.121 167.253 119.607 167.013 120.154 166.839C120.714 166.666 121.227 166.579 121.694 166.579C122.534 166.579 123.221 166.699 123.754 166.939C124.301 167.166 124.734 167.493 125.054 167.919C125.374 168.346 125.594 168.853 125.714 169.439C125.834 170.026 125.894 170.679 125.894 171.399V177.339H122.914V171.759C122.914 170.799 122.787 170.119 122.534 169.719C122.294 169.319 121.874 169.119 121.274 169.119C121.114 169.119 120.887 169.159 120.594 169.239C120.314 169.319 120.081 169.419 119.894 169.539C119.987 169.846 120.047 170.173 120.074 170.519C120.101 170.853 120.114 171.213 120.114 171.599V177.339H117.134V171.759ZM128.1 172.159C128.1 171.226 128.24 170.413 128.52 169.719C128.813 169.013 129.193 168.426 129.66 167.959C130.127 167.493 130.66 167.139 131.26 166.899C131.873 166.659 132.5 166.539 133.14 166.539C134.633 166.539 135.813 166.999 136.68 167.919C137.547 168.826 137.98 170.166 137.98 171.939C137.98 172.113 137.973 172.306 137.96 172.519C137.947 172.719 137.933 172.899 137.92 173.059H131.16C131.227 173.673 131.513 174.159 132.02 174.519C132.527 174.879 133.207 175.059 134.06 175.059C134.607 175.059 135.14 175.013 135.66 174.919C136.193 174.813 136.627 174.686 136.96 174.539L137.36 176.959C137.2 177.039 136.987 177.119 136.72 177.199C136.453 177.279 136.153 177.346 135.82 177.399C135.5 177.466 135.153 177.519 134.78 177.559C134.407 177.599 134.033 177.619 133.66 177.619C132.713 177.619 131.887 177.479 131.18 177.199C130.487 176.919 129.907 176.539 129.44 176.059C128.987 175.566 128.647 174.986 128.42 174.319C128.207 173.653 128.1 172.933 128.1 172.159ZM135.1 171.019C135.087 170.766 135.04 170.519 134.96 170.279C134.893 170.039 134.78 169.826 134.62 169.639C134.473 169.453 134.28 169.299 134.04 169.179C133.813 169.059 133.527 168.999 133.18 168.999C132.847 168.999 132.56 169.059 132.32 169.179C132.08 169.286 131.88 169.433 131.72 169.619C131.56 169.806 131.433 170.026 131.34 170.279C131.26 170.519 131.2 170.766 131.16 171.019H135.1ZM140.28 167.179C140.786 167.033 141.44 166.899 142.24 166.779C143.04 166.646 143.88 166.579 144.76 166.579C145.653 166.579 146.393 166.699 146.98 166.939C147.58 167.166 148.053 167.493 148.4 167.919C148.746 168.346 148.993 168.853 149.14 169.439C149.286 170.026 149.36 170.679 149.36 171.399V177.339H146.38V171.759C146.38 170.799 146.253 170.119 146 169.719C145.746 169.319 145.273 169.119 144.58 169.119C144.366 169.119 144.14 169.133 143.9 169.159C143.66 169.173 143.446 169.193 143.26 169.219V177.339H140.28V167.179ZM151.957 164.199L154.937 163.719V166.819H158.517V169.299H154.937V172.999C154.937 173.626 155.044 174.126 155.257 174.499C155.484 174.873 155.93 175.059 156.597 175.059C156.917 175.059 157.244 175.033 157.577 174.979C157.924 174.913 158.237 174.826 158.517 174.719L158.937 177.039C158.577 177.186 158.177 177.313 157.737 177.419C157.297 177.526 156.757 177.579 156.117 177.579C155.304 177.579 154.63 177.473 154.097 177.259C153.564 177.033 153.137 176.726 152.817 176.339C152.497 175.939 152.27 175.459 152.137 174.899C152.017 174.339 151.957 173.719 151.957 173.039V164.199ZM92.1893 188.479H95.3093V202.339H92.1893V196.459H86.9493V202.339H83.8293V188.479H86.9493V193.779H92.1893V188.479ZM101.297 202.339H98.3168V191.819H101.297V202.339ZM101.577 188.779C101.577 189.326 101.397 189.759 101.037 190.079C100.69 190.386 100.277 190.539 99.7968 190.539C99.3168 190.539 98.8968 190.386 98.5368 190.079C98.1901 189.759 98.0168 189.326 98.0168 188.779C98.0168 188.233 98.1901 187.806 98.5368 187.499C98.8968 187.179 99.3168 187.019 99.7968 187.019C100.277 187.019 100.69 187.179 101.037 187.499C101.397 187.806 101.577 188.233 101.577 188.779ZM107.118 200.199C107.665 200.199 108.051 200.146 108.278 200.039C108.505 199.933 108.618 199.726 108.618 199.419C108.618 199.179 108.471 198.973 108.178 198.799C107.885 198.613 107.438 198.406 106.838 198.179C106.371 198.006 105.945 197.826 105.558 197.639C105.185 197.453 104.865 197.233 104.598 196.979C104.331 196.713 104.125 196.399 103.978 196.039C103.831 195.679 103.758 195.246 103.758 194.739C103.758 193.753 104.125 192.973 104.858 192.399C105.591 191.826 106.598 191.539 107.878 191.539C108.518 191.539 109.131 191.599 109.718 191.719C110.305 191.826 110.771 191.946 111.118 192.079L110.598 194.399C110.251 194.279 109.871 194.173 109.458 194.079C109.058 193.986 108.605 193.939 108.098 193.939C107.165 193.939 106.698 194.199 106.698 194.719C106.698 194.839 106.718 194.946 106.758 195.039C106.798 195.133 106.878 195.226 106.998 195.319C107.118 195.399 107.278 195.493 107.478 195.599C107.691 195.693 107.958 195.799 108.278 195.919C108.931 196.159 109.471 196.399 109.898 196.639C110.325 196.866 110.658 197.119 110.898 197.399C111.151 197.666 111.325 197.966 111.418 198.299C111.525 198.633 111.578 199.019 111.578 199.459C111.578 200.499 111.185 201.286 110.398 201.819C109.625 202.353 108.525 202.619 107.098 202.619C106.165 202.619 105.385 202.539 104.758 202.379C104.145 202.219 103.718 202.086 103.478 201.979L103.978 199.559C104.485 199.759 105.005 199.919 105.538 200.039C106.071 200.146 106.598 200.199 107.118 200.199ZM113.705 189.199L116.685 188.719V191.819H120.265V194.299H116.685V197.999C116.685 198.626 116.792 199.126 117.005 199.499C117.232 199.873 117.678 200.059 118.345 200.059C118.665 200.059 118.992 200.033 119.325 199.979C119.672 199.913 119.985 199.826 120.265 199.719L120.685 202.039C120.325 202.186 119.925 202.313 119.485 202.419C119.045 202.526 118.505 202.579 117.865 202.579C117.052 202.579 116.378 202.473 115.845 202.259C115.312 202.033 114.885 201.726 114.565 201.339C114.245 200.939 114.018 200.459 113.885 199.899C113.765 199.339 113.705 198.719 113.705 198.039V189.199ZM132.141 197.059C132.141 197.886 132.021 198.646 131.781 199.339C131.541 200.019 131.195 200.606 130.741 201.099C130.288 201.579 129.741 201.953 129.101 202.219C128.475 202.486 127.768 202.619 126.981 202.619C126.208 202.619 125.501 202.486 124.861 202.219C124.235 201.953 123.695 201.579 123.241 201.099C122.788 200.606 122.435 200.019 122.181 199.339C121.928 198.646 121.801 197.886 121.801 197.059C121.801 196.233 121.928 195.479 122.181 194.799C122.448 194.119 122.808 193.539 123.261 193.059C123.728 192.579 124.275 192.206 124.901 191.939C125.541 191.673 126.235 191.539 126.981 191.539C127.741 191.539 128.435 191.673 129.061 191.939C129.701 192.206 130.248 192.579 130.701 193.059C131.155 193.539 131.508 194.119 131.761 194.799C132.015 195.479 132.141 196.233 132.141 197.059ZM129.101 197.059C129.101 196.139 128.915 195.419 128.541 194.899C128.181 194.366 127.661 194.099 126.981 194.099C126.301 194.099 125.775 194.366 125.401 194.899C125.028 195.419 124.841 196.139 124.841 197.059C124.841 197.979 125.028 198.713 125.401 199.259C125.775 199.793 126.301 200.059 126.981 200.059C127.661 200.059 128.181 199.793 128.541 199.259C128.915 198.713 129.101 197.979 129.101 197.059ZM140.79 194.459C140.523 194.393 140.21 194.326 139.85 194.259C139.49 194.179 139.103 194.139 138.69 194.139C138.503 194.139 138.276 194.159 138.01 194.199C137.756 194.226 137.563 194.259 137.43 194.299V202.339H134.45V192.379C134.983 192.193 135.61 192.019 136.33 191.859C137.063 191.686 137.876 191.599 138.77 191.599C138.93 191.599 139.123 191.613 139.35 191.639C139.576 191.653 139.803 191.679 140.03 191.719C140.256 191.746 140.483 191.786 140.71 191.839C140.936 191.879 141.13 191.933 141.29 191.999L140.79 194.459ZM152.852 191.819C152.252 193.846 151.625 195.746 150.972 197.519C150.319 199.293 149.605 201.013 148.832 202.679C148.552 203.279 148.272 203.786 147.992 204.199C147.712 204.626 147.405 204.973 147.072 205.239C146.739 205.519 146.359 205.719 145.932 205.839C145.519 205.973 145.032 206.039 144.472 206.039C144.005 206.039 143.572 205.993 143.172 205.899C142.785 205.819 142.465 205.726 142.212 205.619L142.732 203.239C143.039 203.346 143.312 203.419 143.552 203.459C143.792 203.499 144.045 203.519 144.312 203.519C144.845 203.519 145.252 203.373 145.532 203.079C145.825 202.799 146.072 202.406 146.272 201.899C145.592 200.566 144.912 199.073 144.232 197.419C143.552 195.753 142.912 193.886 142.312 191.819H145.472C145.605 192.339 145.759 192.906 145.932 193.519C146.119 194.119 146.312 194.733 146.512 195.359C146.712 195.973 146.912 196.573 147.112 197.159C147.325 197.746 147.525 198.279 147.712 198.759C147.885 198.279 148.065 197.746 148.252 197.159C148.439 196.573 148.619 195.973 148.792 195.359C148.979 194.733 149.152 194.119 149.312 193.519C149.485 192.906 149.639 192.339 149.772 191.819H152.852Z" fill="#445670"></path><path d="M68.6659 83.1362V69.2762H77.9459V71.8962H71.7859V74.7962H77.2659V77.4162H71.7859V83.1362H68.6659ZM80.1503 69.2762H83.2703V83.1362H80.1503V69.2762ZM92.7984 83.4162C90.5451 83.4162 88.8251 82.7895 87.6384 81.5362C86.4651 80.2828 85.8784 78.5028 85.8784 76.1962C85.8784 75.0495 86.0584 74.0295 86.4184 73.1362C86.7784 72.2295 87.2718 71.4695 87.8984 70.8562C88.5251 70.2295 89.2718 69.7562 90.1384 69.4362C91.0051 69.1162 91.9451 68.9562 92.9584 68.9562C93.5451 68.9562 94.0784 69.0028 94.5584 69.0962C95.0384 69.1762 95.4584 69.2762 95.8184 69.3962C96.1784 69.5028 96.4784 69.6162 96.7184 69.7362C96.9584 69.8562 97.1318 69.9495 97.2384 70.0162L96.3384 72.5362C95.9118 72.3095 95.4118 72.1162 94.8384 71.9562C94.2784 71.7962 93.6384 71.7162 92.9184 71.7162C92.4384 71.7162 91.9651 71.7962 91.4984 71.9562C91.0451 72.1162 90.6384 72.3762 90.2784 72.7362C89.9318 73.0828 89.6518 73.5362 89.4384 74.0962C89.2251 74.6562 89.1184 75.3362 89.1184 76.1362C89.1184 76.7762 89.1851 77.3762 89.3184 77.9362C89.4651 78.4828 89.6918 78.9562 89.9984 79.3562C90.3184 79.7562 90.7318 80.0762 91.2384 80.3162C91.7451 80.5428 92.3584 80.6562 93.0784 80.6562C93.5318 80.6562 93.9384 80.6295 94.2984 80.5762C94.6584 80.5228 94.9784 80.4628 95.2584 80.3962C95.5384 80.3162 95.7851 80.2295 95.9984 80.1362C96.2118 80.0428 96.4051 79.9562 96.5784 79.8762L97.4384 82.3762C96.9984 82.6428 96.3784 82.8828 95.5784 83.0962C94.7784 83.3095 93.8518 83.4162 92.7984 83.4162ZM101.559 76.1962C101.559 76.8762 101.639 77.4895 101.799 78.0362C101.973 78.5828 102.213 79.0562 102.519 79.4562C102.839 79.8428 103.226 80.1428 103.679 80.3562C104.133 80.5695 104.653 80.6762 105.239 80.6762C105.813 80.6762 106.326 80.5695 106.779 80.3562C107.246 80.1428 107.633 79.8428 107.939 79.4562C108.259 79.0562 108.499 78.5828 108.659 78.0362C108.833 77.4895 108.919 76.8762 108.919 76.1962C108.919 75.5162 108.833 74.9028 108.659 74.3562C108.499 73.7962 108.259 73.3228 107.939 72.9362C107.633 72.5362 107.246 72.2295 106.779 72.0162C106.326 71.8028 105.813 71.6962 105.239 71.6962C104.653 71.6962 104.133 71.8095 103.679 72.0362C103.226 72.2495 102.839 72.5562 102.519 72.9562C102.213 73.3428 101.973 73.8162 101.799 74.3762C101.639 74.9228 101.559 75.5295 101.559 76.1962ZM112.139 76.1962C112.139 77.3828 111.959 78.4295 111.599 79.3362C111.253 80.2295 110.773 80.9828 110.159 81.5962C109.546 82.1962 108.813 82.6495 107.959 82.9562C107.119 83.2628 106.213 83.4162 105.239 83.4162C104.293 83.4162 103.399 83.2628 102.559 82.9562C101.719 82.6495 100.986 82.1962 100.359 81.5962C99.7327 80.9828 99.2394 80.2295 98.8794 79.3362C98.5194 78.4295 98.3394 77.3828 98.3394 76.1962C98.3394 75.0095 98.5261 73.9695 98.8994 73.0762C99.2727 72.1695 99.7727 71.4095 100.399 70.7962C101.039 70.1828 101.773 69.7228 102.599 69.4162C103.439 69.1095 104.319 68.9562 105.239 68.9562C106.186 68.9562 107.079 69.1095 107.919 69.4162C108.759 69.7228 109.493 70.1828 110.119 70.7962C110.746 71.4095 111.239 72.1695 111.599 73.0762C111.959 73.9695 112.139 75.0095 112.139 76.1962ZM122.365 80.9962C122.912 80.9962 123.298 80.9428 123.525 80.8362C123.752 80.7295 123.865 80.5228 123.865 80.2162C123.865 79.9762 123.718 79.7695 123.425 79.5962C123.132 79.4095 122.685 79.2028 122.085 78.9762C121.618 78.8028 121.192 78.6228 120.805 78.4362C120.432 78.2495 120.112 78.0295 119.845 77.7762C119.578 77.5095 119.372 77.1962 119.225 76.8362C119.078 76.4762 119.005 76.0428 119.005 75.5362C119.005 74.5495 119.372 73.7695 120.105 73.1962C120.838 72.6228 121.845 72.3362 123.125 72.3362C123.765 72.3362 124.378 72.3962 124.965 72.5162C125.552 72.6228 126.018 72.7428 126.365 72.8762L125.845 75.1962C125.498 75.0762 125.118 74.9695 124.705 74.8762C124.305 74.7828 123.852 74.7362 123.345 74.7362C122.412 74.7362 121.945 74.9962 121.945 75.5162C121.945 75.6362 121.965 75.7428 122.005 75.8362C122.045 75.9295 122.125 76.0228 122.245 76.1162C122.365 76.1962 122.525 76.2895 122.725 76.3962C122.938 76.4895 123.205 76.5962 123.525 76.7162C124.178 76.9562 124.718 77.1962 125.145 77.4362C125.572 77.6628 125.905 77.9162 126.145 78.1962C126.398 78.4628 126.572 78.7628 126.665 79.0962C126.772 79.4295 126.825 79.8162 126.825 80.2562C126.825 81.2962 126.432 82.0828 125.645 82.6162C124.872 83.1495 123.772 83.4162 122.345 83.4162C121.412 83.4162 120.632 83.3362 120.005 83.1762C119.392 83.0162 118.965 82.8828 118.725 82.7762L119.225 80.3562C119.732 80.5562 120.252 80.7162 120.785 80.8362C121.318 80.9428 121.845 80.9962 122.365 80.9962ZM128.552 77.8762C128.552 77.1162 128.672 76.4028 128.912 75.7362C129.165 75.0562 129.525 74.4695 129.992 73.9762C130.459 73.4695 131.025 73.0695 131.692 72.7762C132.359 72.4828 133.119 72.3362 133.972 72.3362C134.532 72.3362 135.045 72.3895 135.512 72.4962C135.979 72.5895 136.432 72.7295 136.872 72.9162L136.252 75.2962C135.972 75.1895 135.665 75.0962 135.332 75.0162C134.999 74.9362 134.625 74.8962 134.212 74.8962C133.332 74.8962 132.672 75.1695 132.232 75.7162C131.805 76.2628 131.592 76.9828 131.592 77.8762C131.592 78.8228 131.792 79.5562 132.192 80.0762C132.605 80.5962 133.319 80.8562 134.332 80.8562C134.692 80.8562 135.079 80.8228 135.492 80.7562C135.905 80.6895 136.285 80.5828 136.632 80.4362L137.052 82.8762C136.705 83.0228 136.272 83.1495 135.752 83.2562C135.232 83.3628 134.659 83.4162 134.032 83.4162C133.072 83.4162 132.245 83.2762 131.552 82.9962C130.859 82.7028 130.285 82.3095 129.832 81.8162C129.392 81.3228 129.065 80.7428 128.852 80.0762C128.652 79.3962 128.552 78.6628 128.552 77.8762ZM148.384 77.8562C148.384 78.6828 148.264 79.4428 148.024 80.1362C147.784 80.8162 147.437 81.4028 146.984 81.8962C146.531 82.3762 145.984 82.7495 145.344 83.0162C144.717 83.2828 144.011 83.4162 143.224 83.4162C142.451 83.4162 141.744 83.2828 141.104 83.0162C140.477 82.7495 139.937 82.3762 139.484 81.8962C139.031 81.4028 138.677 80.8162 138.424 80.1362C138.171 79.4428 138.044 78.6828 138.044 77.8562C138.044 77.0295 138.171 76.2762 138.424 75.5962C138.691 74.9162 139.051 74.3362 139.504 73.8562C139.971 73.3762 140.517 73.0028 141.144 72.7362C141.784 72.4695 142.477 72.3362 143.224 72.3362C143.984 72.3362 144.677 72.4695 145.304 72.7362C145.944 73.0028 146.491 73.3762 146.944 73.8562C147.397 74.3362 147.751 74.9162 148.004 75.5962C148.257 76.2762 148.384 77.0295 148.384 77.8562ZM145.344 77.8562C145.344 76.9362 145.157 76.2162 144.784 75.6962C144.424 75.1628 143.904 74.8962 143.224 74.8962C142.544 74.8962 142.017 75.1628 141.644 75.6962C141.271 76.2162 141.084 76.9362 141.084 77.8562C141.084 78.7762 141.271 79.5095 141.644 80.0562C142.017 80.5895 142.544 80.8562 143.224 80.8562C143.904 80.8562 144.424 80.5895 144.784 80.0562C145.157 79.5095 145.344 78.7762 145.344 77.8562ZM157.033 75.2562C156.766 75.1895 156.453 75.1228 156.093 75.0562C155.733 74.9762 155.346 74.9362 154.933 74.9362C154.746 74.9362 154.519 74.9562 154.253 74.9962C153.999 75.0228 153.806 75.0562 153.673 75.0962V83.1362H150.693V73.1762C151.226 72.9895 151.853 72.8162 152.573 72.6562C153.306 72.4828 154.119 72.3962 155.013 72.3962C155.173 72.3962 155.366 72.4095 155.593 72.4362C155.819 72.4495 156.046 72.4762 156.273 72.5162C156.499 72.5428 156.726 72.5828 156.953 72.6362C157.179 72.6762 157.373 72.7295 157.533 72.7962L157.033 75.2562ZM158.435 77.9562C158.435 77.0228 158.575 76.2095 158.855 75.5162C159.148 74.8095 159.528 74.2228 159.995 73.7562C160.461 73.2895 160.995 72.9362 161.595 72.6962C162.208 72.4562 162.835 72.3362 163.475 72.3362C164.968 72.3362 166.148 72.7962 167.015 73.7162C167.881 74.6228 168.315 75.9628 168.315 77.7362C168.315 77.9095 168.308 78.1028 168.295 78.3162C168.281 78.5162 168.268 78.6962 168.255 78.8562H161.495C161.561 79.4695 161.848 79.9562 162.355 80.3162C162.861 80.6762 163.541 80.8562 164.395 80.8562C164.941 80.8562 165.475 80.8095 165.995 80.7162C166.528 80.6095 166.961 80.4828 167.295 80.3362L167.695 82.7562C167.535 82.8362 167.321 82.9162 167.055 82.9962C166.788 83.0762 166.488 83.1428 166.155 83.1962C165.835 83.2628 165.488 83.3162 165.115 83.3562C164.741 83.3962 164.368 83.4162 163.995 83.4162C163.048 83.4162 162.221 83.2762 161.515 82.9962C160.821 82.7162 160.241 82.3362 159.775 81.8562C159.321 81.3628 158.981 80.7828 158.755 80.1162C158.541 79.4495 158.435 78.7295 158.435 77.9562ZM165.435 76.8162C165.421 76.5628 165.375 76.3162 165.295 76.0762C165.228 75.8362 165.115 75.6228 164.955 75.4362C164.808 75.2495 164.615 75.0962 164.375 74.9762C164.148 74.8562 163.861 74.7962 163.515 74.7962C163.181 74.7962 162.895 74.8562 162.655 74.9762C162.415 75.0828 162.215 75.2295 162.055 75.4162C161.895 75.6028 161.768 75.8228 161.675 76.0762C161.595 76.3162 161.535 76.5628 161.495 76.8162H165.435Z" fill="#3084C6" fill-opacity="0.8"></path></g><defs><linearGradient id="paint0_linear_417_96" x1="119.44" y1="109.196" x2="255" y2="109.196" gradientUnits="userSpaceOnUse"><stop stop-color="#93BD45"></stop><stop offset="1" stop-color="#6CBE45"></stop></linearGradient><clipPath id="clip0_417_96"><rect width="255" height="255" fill="white"></rect></clipPath></defs></svg> 