<?xml version="1.0" encoding="UTF-8"?> <svg xmlns="http://www.w3.org/2000/svg" width="255" height="255" viewBox="0 0 255 255" fill="none"><g clip-path="url(#clip0_491_138)"><g opacity="0.1"><path d="M119.618 228.095C170.849 228.095 212.379 186.57 212.379 135.345C212.379 84.1207 170.849 42.5951 119.618 42.5951C68.3879 42.5951 26.8574 84.1207 26.8574 135.345C26.8574 186.57 68.3879 228.095 119.618 228.095Z" fill="black"></path></g><path d="M28.1891 212.545C-14.3911 162.14 -8.00204 86.4919 42.4091 43.9168C62.8179 26.6845 87.673 16.9619 114.301 15.7904L114.911 29.6884C91.3883 30.7197 69.4273 39.3108 51.3918 54.5406C6.83891 92.1693 1.19094 159.026 38.8141 203.573L28.179 212.555L28.1891 212.545Z" fill="#71BE46"></path><path d="M249.092 174.996L220.031 166.115C222.955 156.543 224.497 146.57 224.597 136.457C224.888 108.42 214.253 81.9461 194.635 61.9101C175.017 41.8742 148.77 30.6797 120.73 30.3793L121.051 0C195.686 0.781011 255.771 62.1404 254.99 136.777C254.85 149.794 252.867 162.65 249.092 174.996Z" fill="url(#paint0_linear_491_138)"></path><path d="M162.17 247.16L157.213 234.153C185.973 223.189 208.485 200.359 218.96 171.532L232.039 176.278C220.182 208.91 194.716 234.744 162.17 247.15V247.16Z" fill="#FF9903"></path><path d="M119.548 255C110.846 255 102.134 254.049 93.5918 252.136L96.6261 238.559C114.972 242.664 134.179 241.753 152.164 235.935L156.451 249.172C144.464 253.047 132.006 255 119.538 255H119.548Z" fill="#F4CD00"></path><path d="M86.3726 250.264C65.8136 244.316 47.2373 232.992 32.6367 217.501L42.761 207.959C55.6592 221.637 72.0724 231.64 90.238 236.897L86.3726 250.264Z" fill="#AAAAAA"></path><path d="M79.2981 146.87C78.2541 146.87 77.1521 146.793 75.9921 146.638C74.8321 146.522 73.7107 146.348 72.6281 146.116C71.5454 145.884 70.5594 145.633 69.6701 145.362C68.7807 145.091 68.0847 144.84 67.5821 144.608L69.2641 137.416C70.2694 137.841 71.5454 138.305 73.0921 138.808C74.6774 139.272 76.6301 139.504 78.9501 139.504C81.6181 139.504 83.5707 139.001 84.8081 137.996C86.0454 136.991 86.6641 135.637 86.6641 133.936C86.6641 132.892 86.4321 132.022 85.9681 131.326C85.5427 130.591 84.9434 130.011 84.1701 129.586C83.3967 129.122 82.4687 128.813 81.3861 128.658C80.3421 128.465 79.2207 128.368 78.0221 128.368H74.6581V121.408H78.4861C79.3367 121.408 80.1487 121.331 80.9221 121.176C81.7341 121.021 82.4494 120.77 83.0681 120.422C83.6867 120.035 84.1701 119.533 84.5181 118.914C84.9047 118.257 85.0981 117.445 85.0981 116.478C85.0981 115.743 84.9434 115.105 84.6341 114.564C84.3247 114.023 83.9187 113.578 83.4161 113.23C82.9521 112.882 82.3914 112.631 81.7341 112.476C81.1154 112.283 80.4774 112.186 79.8201 112.186C78.1574 112.186 76.6107 112.437 75.1801 112.94C73.7881 113.443 72.5121 114.061 71.3521 114.796L68.2781 108.474C68.8967 108.087 69.6121 107.681 70.4241 107.256C71.2747 106.831 72.2027 106.444 73.2081 106.096C74.2134 105.748 75.2767 105.458 76.3981 105.226C77.5581 104.994 78.7761 104.878 80.0521 104.878C82.4107 104.878 84.4407 105.168 86.1421 105.748C87.8821 106.289 89.3127 107.082 90.4341 108.126C91.5554 109.131 92.3867 110.33 92.9281 111.722C93.4694 113.075 93.7401 114.564 93.7401 116.188C93.7401 117.773 93.2954 119.32 92.4061 120.828C91.5167 122.297 90.3181 123.419 88.8101 124.192C90.8981 125.043 92.5027 126.319 93.6241 128.02C94.7841 129.683 95.3641 131.693 95.3641 134.052C95.3641 135.908 95.0547 137.629 94.4361 139.214C93.8174 140.761 92.8507 142.114 91.5361 143.274C90.2214 144.395 88.5394 145.285 86.4901 145.942C84.4794 146.561 82.0821 146.87 79.2981 146.87ZM128.851 125.816C128.851 132.583 127.556 137.783 124.965 141.418C122.413 145.014 118.875 146.812 114.351 146.812C109.827 146.812 106.27 145.014 103.679 141.418C101.127 137.783 99.8509 132.583 99.8509 125.816C99.8509 122.452 100.18 119.475 100.837 116.884C101.533 114.293 102.519 112.109 103.795 110.33C105.071 108.551 106.598 107.198 108.377 106.27C110.156 105.342 112.147 104.878 114.351 104.878C118.875 104.878 122.413 106.695 124.965 110.33C127.556 113.926 128.851 119.088 128.851 125.816ZM120.035 125.816C120.035 123.805 119.938 121.988 119.745 120.364C119.552 118.701 119.242 117.271 118.817 116.072C118.392 114.873 117.812 113.945 117.077 113.288C116.342 112.631 115.434 112.302 114.351 112.302C113.268 112.302 112.36 112.631 111.625 113.288C110.929 113.945 110.349 114.873 109.885 116.072C109.46 117.271 109.15 118.701 108.957 120.364C108.764 121.988 108.667 123.805 108.667 125.816C108.667 127.827 108.764 129.663 108.957 131.326C109.15 132.989 109.46 134.419 109.885 135.618C110.349 136.817 110.929 137.745 111.625 138.402C112.36 139.059 113.268 139.388 114.351 139.388C115.434 139.388 116.342 139.059 117.077 138.402C117.812 137.745 118.392 136.817 118.817 135.618C119.242 134.419 119.552 132.989 119.745 131.326C119.938 129.663 120.035 127.827 120.035 125.816ZM152.246 116.13C152.246 119.765 151.318 122.549 149.462 124.482C147.606 126.415 145.112 127.382 141.98 127.382C138.848 127.382 136.354 126.415 134.498 124.482C132.642 122.549 131.714 119.765 131.714 116.13C131.714 112.495 132.642 109.711 134.498 107.778C136.354 105.845 138.848 104.878 141.98 104.878C145.112 104.878 147.606 105.845 149.462 107.778C151.318 109.711 152.246 112.495 152.246 116.13ZM145.692 116.13C145.692 114.158 145.344 112.727 144.648 111.838C143.952 110.949 143.062 110.504 141.98 110.504C140.858 110.504 139.95 110.949 139.254 111.838C138.596 112.727 138.268 114.158 138.268 116.13C138.268 118.102 138.596 119.552 139.254 120.48C139.95 121.369 140.858 121.814 141.98 121.814C143.062 121.814 143.952 121.369 144.648 120.48C145.344 119.552 145.692 118.102 145.692 116.13ZM163.556 105.806H171.618L148.94 146H140.878L163.556 105.806ZM180.898 135.676C180.898 139.311 179.97 142.095 178.114 144.028C176.258 145.961 173.764 146.928 170.632 146.928C167.5 146.928 165.006 145.961 163.15 144.028C161.294 142.095 160.366 139.311 160.366 135.676C160.366 132.041 161.294 129.257 163.15 127.324C165.006 125.391 167.5 124.424 170.632 124.424C173.764 124.424 176.258 125.391 178.114 127.324C179.97 129.257 180.898 132.041 180.898 135.676ZM174.344 135.676C174.344 133.704 173.996 132.273 173.3 131.384C172.604 130.495 171.714 130.05 170.632 130.05C169.51 130.05 168.602 130.495 167.906 131.384C167.248 132.273 166.92 133.704 166.92 135.676C166.92 137.648 167.248 139.098 167.906 140.026C168.602 140.915 169.51 141.36 170.632 141.36C171.714 141.36 172.604 140.915 173.3 140.026C173.996 139.098 174.344 137.648 174.344 135.676Z" fill="#282A39"></path><path d="M100.02 179.28C97.7663 179.28 96.0463 178.653 94.8596 177.4C93.6863 176.147 93.0996 174.367 93.0996 172.06C93.0996 170.913 93.2796 169.893 93.6396 169C93.9996 168.093 94.4929 167.333 95.1196 166.72C95.7463 166.093 96.4929 165.62 97.3596 165.3C98.2263 164.98 99.1663 164.82 100.18 164.82C100.766 164.82 101.3 164.867 101.78 164.96C102.26 165.04 102.68 165.14 103.04 165.26C103.4 165.367 103.7 165.48 103.94 165.6C104.18 165.72 104.353 165.813 104.46 165.88L103.56 168.4C103.133 168.173 102.633 167.98 102.06 167.82C101.5 167.66 100.86 167.58 100.14 167.58C99.6596 167.58 99.1863 167.66 98.7196 167.82C98.2663 167.98 97.8596 168.24 97.4996 168.6C97.1529 168.947 96.8729 169.4 96.6596 169.96C96.4463 170.52 96.3396 171.2 96.3396 172C96.3396 172.64 96.4063 173.24 96.5396 173.8C96.6863 174.347 96.9129 174.82 97.2196 175.22C97.5396 175.62 97.9529 175.94 98.4596 176.18C98.9663 176.407 99.5796 176.52 100.3 176.52C100.753 176.52 101.16 176.493 101.52 176.44C101.88 176.387 102.2 176.327 102.48 176.26C102.76 176.18 103.006 176.093 103.22 176C103.433 175.907 103.626 175.82 103.8 175.74L104.66 178.24C104.22 178.507 103.6 178.747 102.8 178.96C102 179.173 101.073 179.28 100.02 179.28ZM112.808 171.12C112.542 171.053 112.228 170.987 111.868 170.92C111.508 170.84 111.122 170.8 110.708 170.8C110.522 170.8 110.295 170.82 110.028 170.86C109.775 170.887 109.582 170.92 109.448 170.96V179H106.468V169.04C107.002 168.853 107.628 168.68 108.348 168.52C109.082 168.347 109.895 168.26 110.788 168.26C110.948 168.26 111.142 168.273 111.368 168.3C111.595 168.313 111.822 168.34 112.048 168.38C112.275 168.407 112.502 168.447 112.728 168.5C112.955 168.54 113.148 168.593 113.308 168.66L112.808 171.12ZM114.211 173.82C114.211 172.887 114.351 172.073 114.631 171.38C114.924 170.673 115.304 170.087 115.771 169.62C116.237 169.153 116.771 168.8 117.371 168.56C117.984 168.32 118.611 168.2 119.251 168.2C120.744 168.2 121.924 168.66 122.791 169.58C123.657 170.487 124.091 171.827 124.091 173.6C124.091 173.773 124.084 173.967 124.071 174.18C124.057 174.38 124.044 174.56 124.031 174.72H117.271C117.337 175.333 117.624 175.82 118.131 176.18C118.637 176.54 119.317 176.72 120.171 176.72C120.717 176.72 121.251 176.673 121.771 176.58C122.304 176.473 122.737 176.347 123.071 176.2L123.471 178.62C123.311 178.7 123.097 178.78 122.831 178.86C122.564 178.94 122.264 179.007 121.931 179.06C121.611 179.127 121.264 179.18 120.891 179.22C120.517 179.26 120.144 179.28 119.771 179.28C118.824 179.28 117.997 179.14 117.291 178.86C116.597 178.58 116.017 178.2 115.551 177.72C115.097 177.227 114.757 176.647 114.531 175.98C114.317 175.313 114.211 174.593 114.211 173.82ZM121.211 172.68C121.197 172.427 121.151 172.18 121.071 171.94C121.004 171.7 120.891 171.487 120.731 171.3C120.584 171.113 120.391 170.96 120.151 170.84C119.924 170.72 119.637 170.66 119.291 170.66C118.957 170.66 118.671 170.72 118.431 170.84C118.191 170.947 117.991 171.093 117.831 171.28C117.671 171.467 117.544 171.687 117.451 171.94C117.371 172.18 117.311 172.427 117.271 172.68H121.211ZM128.93 173.66C128.93 174.58 129.137 175.32 129.55 175.88C129.964 176.44 130.577 176.72 131.39 176.72C131.657 176.72 131.904 176.713 132.13 176.7C132.357 176.673 132.544 176.647 132.69 176.62V171.2C132.504 171.08 132.257 170.98 131.95 170.9C131.657 170.82 131.357 170.78 131.05 170.78C129.637 170.78 128.93 171.74 128.93 173.66ZM135.67 178.66C135.404 178.74 135.097 178.82 134.75 178.9C134.404 178.967 134.037 179.027 133.65 179.08C133.277 179.133 132.89 179.173 132.49 179.2C132.104 179.24 131.73 179.26 131.37 179.26C130.504 179.26 129.73 179.133 129.05 178.88C128.37 178.627 127.797 178.267 127.33 177.8C126.864 177.32 126.504 176.747 126.25 176.08C126.01 175.4 125.89 174.64 125.89 173.8C125.89 172.947 125.997 172.18 126.21 171.5C126.424 170.807 126.73 170.22 127.13 169.74C127.53 169.26 128.017 168.893 128.59 168.64C129.177 168.387 129.844 168.26 130.59 168.26C131.004 168.26 131.37 168.3 131.69 168.38C132.024 168.46 132.357 168.573 132.69 168.72V163.96L135.67 163.48V178.66ZM141.441 179H138.461V168.48H141.441V179ZM141.721 165.44C141.721 165.987 141.541 166.42 141.181 166.74C140.834 167.047 140.421 167.2 139.941 167.2C139.461 167.2 139.041 167.047 138.681 166.74C138.334 166.42 138.161 165.987 138.161 165.44C138.161 164.893 138.334 164.467 138.681 164.16C139.041 163.84 139.461 163.68 139.941 163.68C140.421 163.68 140.834 163.84 141.181 164.16C141.541 164.467 141.721 164.893 141.721 165.44ZM144.142 165.86L147.122 165.38V168.48H150.702V170.96H147.122V174.66C147.122 175.287 147.228 175.787 147.442 176.16C147.668 176.533 148.115 176.72 148.782 176.72C149.102 176.72 149.428 176.693 149.762 176.64C150.108 176.573 150.422 176.487 150.702 176.38L151.122 178.7C150.762 178.847 150.362 178.973 149.922 179.08C149.482 179.187 148.942 179.24 148.302 179.24C147.488 179.24 146.815 179.133 146.282 178.92C145.748 178.693 145.322 178.387 145.002 178C144.682 177.6 144.455 177.12 144.322 176.56C144.202 176 144.142 175.38 144.142 174.7V165.86ZM78.7973 204.28C77.824 204.28 76.984 204.147 76.2773 203.88C75.5707 203.6 74.984 203.22 74.5173 202.74C74.064 202.247 73.724 201.667 73.4973 201C73.284 200.32 73.1773 199.573 73.1773 198.76V190.14H76.2973V198.5C76.2973 199.06 76.3573 199.54 76.4773 199.94C76.6107 200.327 76.784 200.647 76.9973 200.9C77.224 201.14 77.4907 201.313 77.7973 201.42C78.1173 201.527 78.464 201.58 78.8373 201.58C79.5973 201.58 80.2107 201.347 80.6773 200.88C81.1573 200.413 81.3973 199.62 81.3973 198.5V190.14H84.5173V198.76C84.5173 199.573 84.404 200.32 84.1773 201C83.9507 201.68 83.604 202.267 83.1373 202.76C82.6707 203.24 82.0773 203.613 81.3573 203.88C80.6373 204.147 79.784 204.28 78.7973 204.28ZM87.218 190.86L90.198 190.38V193.48H93.778V195.96H90.198V199.66C90.198 200.287 90.3046 200.787 90.518 201.16C90.7446 201.533 91.1913 201.72 91.858 201.72C92.178 201.72 92.5046 201.693 92.838 201.64C93.1846 201.573 93.498 201.487 93.778 201.38L94.198 203.7C93.838 203.847 93.438 203.973 92.998 204.08C92.558 204.187 92.018 204.24 91.378 204.24C90.5646 204.24 89.8913 204.133 89.358 203.92C88.8246 203.693 88.398 203.387 88.078 203C87.758 202.6 87.5313 202.12 87.398 201.56C87.278 201 87.218 200.38 87.218 199.7V190.86ZM99.1847 204H96.2047V193.48H99.1847V204ZM99.4647 190.44C99.4647 190.987 99.2847 191.42 98.9247 191.74C98.578 192.047 98.1647 192.2 97.6847 192.2C97.2047 192.2 96.7847 192.047 96.4247 191.74C96.078 191.42 95.9047 190.987 95.9047 190.44C95.9047 189.893 96.078 189.467 96.4247 189.16C96.7847 188.84 97.2047 188.68 97.6847 188.68C98.1647 188.68 98.578 188.84 98.9247 189.16C99.2847 189.467 99.4647 189.893 99.4647 190.44ZM106.186 204.2C105.319 204.187 104.613 204.093 104.066 203.92C103.533 203.747 103.106 203.507 102.786 203.2C102.479 202.88 102.266 202.5 102.146 202.06C102.039 201.607 101.986 201.1 101.986 200.54V188.96L104.966 188.48V199.94C104.966 200.207 104.986 200.447 105.026 200.66C105.066 200.873 105.139 201.053 105.246 201.2C105.366 201.347 105.533 201.467 105.746 201.56C105.959 201.653 106.246 201.713 106.606 201.74L106.186 204.2ZM111.294 204H108.314V193.48H111.294V204ZM111.574 190.44C111.574 190.987 111.394 191.42 111.034 191.74C110.687 192.047 110.274 192.2 109.794 192.2C109.314 192.2 108.894 192.047 108.534 191.74C108.187 191.42 108.014 190.987 108.014 190.44C108.014 189.893 108.187 189.467 108.534 189.16C108.894 188.84 109.314 188.68 109.794 188.68C110.274 188.68 110.687 188.84 111.034 189.16C111.394 189.467 111.574 189.893 111.574 190.44ZM121.995 195.48C121.755 195.747 121.429 196.107 121.015 196.56C120.615 197.013 120.182 197.513 119.715 198.06C119.249 198.607 118.775 199.18 118.295 199.78C117.829 200.38 117.402 200.96 117.015 201.52H122.095V204H113.395V202.24C113.675 201.76 114.009 201.247 114.395 200.7C114.795 200.14 115.209 199.58 115.635 199.02C116.075 198.46 116.509 197.92 116.935 197.4C117.362 196.867 117.755 196.387 118.115 195.96H113.635V193.48H121.995V195.48ZM127.822 201.92C128.116 201.92 128.396 201.913 128.662 201.9C128.929 201.887 129.142 201.867 129.302 201.84V199.58C129.182 199.553 129.002 199.527 128.762 199.5C128.522 199.473 128.302 199.46 128.102 199.46C127.822 199.46 127.556 199.48 127.302 199.52C127.062 199.547 126.849 199.607 126.662 199.7C126.476 199.793 126.329 199.92 126.222 200.08C126.116 200.24 126.062 200.44 126.062 200.68C126.062 201.147 126.216 201.473 126.522 201.66C126.842 201.833 127.276 201.92 127.822 201.92ZM127.582 193.2C128.462 193.2 129.196 193.3 129.782 193.5C130.369 193.7 130.836 193.987 131.182 194.36C131.542 194.733 131.796 195.187 131.942 195.72C132.089 196.253 132.162 196.847 132.162 197.5V203.7C131.736 203.793 131.142 203.9 130.382 204.02C129.622 204.153 128.702 204.22 127.622 204.22C126.942 204.22 126.322 204.16 125.762 204.04C125.216 203.92 124.742 203.727 124.342 203.46C123.942 203.18 123.636 202.82 123.422 202.38C123.209 201.94 123.102 201.4 123.102 200.76C123.102 200.147 123.222 199.627 123.462 199.2C123.716 198.773 124.049 198.433 124.462 198.18C124.876 197.927 125.349 197.747 125.882 197.64C126.416 197.52 126.969 197.46 127.542 197.46C127.929 197.46 128.269 197.48 128.562 197.52C128.869 197.547 129.116 197.587 129.302 197.64V197.36C129.302 196.853 129.149 196.447 128.842 196.14C128.536 195.833 128.002 195.68 127.242 195.68C126.736 195.68 126.236 195.72 125.742 195.8C125.249 195.867 124.822 195.967 124.462 196.1L124.082 193.7C124.256 193.647 124.469 193.593 124.722 193.54C124.989 193.473 125.276 193.42 125.582 193.38C125.889 193.327 126.209 193.287 126.542 193.26C126.889 193.22 127.236 193.2 127.582 193.2ZM134.757 190.86L137.737 190.38V193.48H141.317V195.96H137.737V199.66C137.737 200.287 137.844 200.787 138.057 201.16C138.284 201.533 138.73 201.72 139.397 201.72C139.717 201.72 140.044 201.693 140.377 201.64C140.724 201.573 141.037 201.487 141.317 201.38L141.737 203.7C141.377 203.847 140.977 203.973 140.537 204.08C140.097 204.187 139.557 204.24 138.917 204.24C138.104 204.24 137.43 204.133 136.897 203.92C136.364 203.693 135.937 203.387 135.617 203C135.297 202.6 135.07 202.12 134.937 201.56C134.817 201 134.757 200.38 134.757 199.7V190.86ZM146.724 204H143.744V193.48H146.724V204ZM147.004 190.44C147.004 190.987 146.824 191.42 146.464 191.74C146.117 192.047 145.704 192.2 145.224 192.2C144.744 192.2 144.324 192.047 143.964 191.74C143.617 191.42 143.444 190.987 143.444 190.44C143.444 189.893 143.617 189.467 143.964 189.16C144.324 188.84 144.744 188.68 145.224 188.68C145.704 188.68 146.117 188.84 146.464 189.16C146.824 189.467 147.004 189.893 147.004 190.44ZM159.365 198.72C159.365 199.547 159.245 200.307 159.005 201C158.765 201.68 158.418 202.267 157.965 202.76C157.512 203.24 156.965 203.613 156.325 203.88C155.698 204.147 154.992 204.28 154.205 204.28C153.432 204.28 152.725 204.147 152.085 203.88C151.458 203.613 150.918 203.24 150.465 202.76C150.012 202.267 149.658 201.68 149.405 201C149.152 200.307 149.025 199.547 149.025 198.72C149.025 197.893 149.152 197.14 149.405 196.46C149.672 195.78 150.032 195.2 150.485 194.72C150.952 194.24 151.498 193.867 152.125 193.6C152.765 193.333 153.458 193.2 154.205 193.2C154.965 193.2 155.658 193.333 156.285 193.6C156.925 193.867 157.472 194.24 157.925 194.72C158.378 195.2 158.732 195.78 158.985 196.46C159.238 197.14 159.365 197.893 159.365 198.72ZM156.325 198.72C156.325 197.8 156.138 197.08 155.765 196.56C155.405 196.027 154.885 195.76 154.205 195.76C153.525 195.76 152.998 196.027 152.625 196.56C152.252 197.08 152.065 197.8 152.065 198.72C152.065 199.64 152.252 200.373 152.625 200.92C152.998 201.453 153.525 201.72 154.205 201.72C154.885 201.72 155.405 201.453 155.765 200.92C156.138 200.373 156.325 199.64 156.325 198.72ZM161.673 193.84C162.18 193.693 162.833 193.56 163.633 193.44C164.433 193.307 165.273 193.24 166.153 193.24C167.047 193.24 167.787 193.36 168.373 193.6C168.973 193.827 169.447 194.153 169.793 194.58C170.14 195.007 170.387 195.513 170.533 196.1C170.68 196.687 170.753 197.34 170.753 198.06V204H167.773V198.42C167.773 197.46 167.647 196.78 167.393 196.38C167.14 195.98 166.667 195.78 165.973 195.78C165.76 195.78 165.533 195.793 165.293 195.82C165.053 195.833 164.84 195.853 164.653 195.88V204H161.673V193.84Z" fill="#445670"></path><path d="M72.4398 85V71.14H81.7198V73.76H75.5598V76.66H81.0398V79.28H75.5598V85H72.4398ZM83.9242 71.14H87.0442V85H83.9242V71.14ZM96.5723 85.28C94.319 85.28 92.599 84.6533 91.4123 83.4C90.239 82.1467 89.6523 80.3667 89.6523 78.06C89.6523 76.9133 89.8323 75.8933 90.1923 75C90.5523 74.0933 91.0457 73.3333 91.6723 72.72C92.299 72.0933 93.0457 71.62 93.9123 71.3C94.779 70.98 95.719 70.82 96.7323 70.82C97.319 70.82 97.8523 70.8667 98.3323 70.96C98.8123 71.04 99.2323 71.14 99.5923 71.26C99.9523 71.3667 100.252 71.48 100.492 71.6C100.732 71.72 100.906 71.8133 101.012 71.88L100.112 74.4C99.6857 74.1733 99.1857 73.98 98.6123 73.82C98.0523 73.66 97.4123 73.58 96.6923 73.58C96.2123 73.58 95.739 73.66 95.2723 73.82C94.819 73.98 94.4123 74.24 94.0523 74.6C93.7057 74.9467 93.4257 75.4 93.2123 75.96C92.999 76.52 92.8923 77.2 92.8923 78C92.8923 78.64 92.959 79.24 93.0923 79.8C93.239 80.3467 93.4657 80.82 93.7723 81.22C94.0923 81.62 94.5057 81.94 95.0123 82.18C95.519 82.4067 96.1323 82.52 96.8523 82.52C97.3057 82.52 97.7123 82.4933 98.0723 82.44C98.4323 82.3867 98.7523 82.3267 99.0323 82.26C99.3123 82.18 99.559 82.0933 99.7723 82C99.9857 81.9067 100.179 81.82 100.352 81.74L101.212 84.24C100.772 84.5067 100.152 84.7467 99.3523 84.96C98.5523 85.1733 97.6257 85.28 96.5723 85.28ZM105.333 78.06C105.333 78.74 105.413 79.3533 105.573 79.9C105.747 80.4467 105.987 80.92 106.293 81.32C106.613 81.7067 107 82.0067 107.453 82.22C107.907 82.4333 108.427 82.54 109.013 82.54C109.587 82.54 110.1 82.4333 110.553 82.22C111.02 82.0067 111.407 81.7067 111.713 81.32C112.033 80.92 112.273 80.4467 112.433 79.9C112.607 79.3533 112.693 78.74 112.693 78.06C112.693 77.38 112.607 76.7667 112.433 76.22C112.273 75.66 112.033 75.1867 111.713 74.8C111.407 74.4 111.02 74.0933 110.553 73.88C110.1 73.6667 109.587 73.56 109.013 73.56C108.427 73.56 107.907 73.6733 107.453 73.9C107 74.1133 106.613 74.42 106.293 74.82C105.987 75.2067 105.747 75.68 105.573 76.24C105.413 76.7867 105.333 77.3933 105.333 78.06ZM115.913 78.06C115.913 79.2467 115.733 80.2933 115.373 81.2C115.027 82.0933 114.547 82.8467 113.933 83.46C113.32 84.06 112.587 84.5133 111.733 84.82C110.893 85.1267 109.987 85.28 109.013 85.28C108.067 85.28 107.173 85.1267 106.333 84.82C105.493 84.5133 104.76 84.06 104.133 83.46C103.507 82.8467 103.013 82.0933 102.653 81.2C102.293 80.2933 102.113 79.2467 102.113 78.06C102.113 76.8733 102.3 75.8333 102.673 74.94C103.047 74.0333 103.547 73.2733 104.173 72.66C104.813 72.0467 105.547 71.5867 106.373 71.28C107.213 70.9733 108.093 70.82 109.013 70.82C109.96 70.82 110.853 70.9733 111.693 71.28C112.533 71.5867 113.267 72.0467 113.893 72.66C114.52 73.2733 115.013 74.0333 115.373 74.94C115.733 75.8333 115.913 76.8733 115.913 78.06ZM126.139 82.86C126.685 82.86 127.072 82.8067 127.299 82.7C127.525 82.5933 127.639 82.3867 127.639 82.08C127.639 81.84 127.492 81.6333 127.199 81.46C126.905 81.2733 126.459 81.0667 125.859 80.84C125.392 80.6667 124.965 80.4867 124.579 80.3C124.205 80.1133 123.885 79.8933 123.619 79.64C123.352 79.3733 123.145 79.06 122.999 78.7C122.852 78.34 122.779 77.9067 122.779 77.4C122.779 76.4133 123.145 75.6333 123.879 75.06C124.612 74.4867 125.619 74.2 126.899 74.2C127.539 74.2 128.152 74.26 128.739 74.38C129.325 74.4867 129.792 74.6067 130.139 74.74L129.619 77.06C129.272 76.94 128.892 76.8333 128.479 76.74C128.079 76.6467 127.625 76.6 127.119 76.6C126.185 76.6 125.719 76.86 125.719 77.38C125.719 77.5 125.739 77.6067 125.779 77.7C125.819 77.7933 125.899 77.8867 126.019 77.98C126.139 78.06 126.299 78.1533 126.499 78.26C126.712 78.3533 126.979 78.46 127.299 78.58C127.952 78.82 128.492 79.06 128.919 79.3C129.345 79.5267 129.679 79.78 129.919 80.06C130.172 80.3267 130.345 80.6267 130.439 80.96C130.545 81.2933 130.599 81.68 130.599 82.12C130.599 83.16 130.205 83.9467 129.419 84.48C128.645 85.0133 127.545 85.28 126.119 85.28C125.185 85.28 124.405 85.2 123.779 85.04C123.165 84.88 122.739 84.7467 122.499 84.64L122.999 82.22C123.505 82.42 124.025 82.58 124.559 82.7C125.092 82.8067 125.619 82.86 126.139 82.86ZM132.326 79.74C132.326 78.98 132.446 78.2667 132.686 77.6C132.939 76.92 133.299 76.3333 133.766 75.84C134.232 75.3333 134.799 74.9333 135.466 74.64C136.132 74.3467 136.892 74.2 137.746 74.2C138.306 74.2 138.819 74.2533 139.286 74.36C139.752 74.4533 140.206 74.5933 140.646 74.78L140.026 77.16C139.746 77.0533 139.439 76.96 139.106 76.88C138.772 76.8 138.399 76.76 137.986 76.76C137.106 76.76 136.446 77.0333 136.006 77.58C135.579 78.1267 135.366 78.8467 135.366 79.74C135.366 80.6867 135.566 81.42 135.966 81.94C136.379 82.46 137.092 82.72 138.106 82.72C138.466 82.72 138.852 82.6867 139.266 82.62C139.679 82.5533 140.059 82.4467 140.406 82.3L140.826 84.74C140.479 84.8867 140.046 85.0133 139.526 85.12C139.006 85.2267 138.432 85.28 137.806 85.28C136.846 85.28 136.019 85.14 135.326 84.86C134.632 84.5667 134.059 84.1733 133.606 83.68C133.166 83.1867 132.839 82.6067 132.626 81.94C132.426 81.26 132.326 80.5267 132.326 79.74ZM152.158 79.72C152.158 80.5467 152.038 81.3067 151.798 82C151.558 82.68 151.211 83.2667 150.758 83.76C150.305 84.24 149.758 84.6133 149.118 84.88C148.491 85.1467 147.785 85.28 146.998 85.28C146.225 85.28 145.518 85.1467 144.878 84.88C144.251 84.6133 143.711 84.24 143.258 83.76C142.805 83.2667 142.451 82.68 142.198 82C141.945 81.3067 141.818 80.5467 141.818 79.72C141.818 78.8933 141.945 78.14 142.198 77.46C142.465 76.78 142.825 76.2 143.278 75.72C143.745 75.24 144.291 74.8667 144.918 74.6C145.558 74.3333 146.251 74.2 146.998 74.2C147.758 74.2 148.451 74.3333 149.078 74.6C149.718 74.8667 150.265 75.24 150.718 75.72C151.171 76.2 151.525 76.78 151.778 77.46C152.031 78.14 152.158 78.8933 152.158 79.72ZM149.118 79.72C149.118 78.8 148.931 78.08 148.558 77.56C148.198 77.0267 147.678 76.76 146.998 76.76C146.318 76.76 145.791 77.0267 145.418 77.56C145.045 78.08 144.858 78.8 144.858 79.72C144.858 80.64 145.045 81.3733 145.418 81.92C145.791 82.4533 146.318 82.72 146.998 82.72C147.678 82.72 148.198 82.4533 148.558 81.92C148.931 81.3733 149.118 80.64 149.118 79.72ZM160.806 77.12C160.54 77.0533 160.226 76.9867 159.866 76.92C159.506 76.84 159.12 76.8 158.706 76.8C158.52 76.8 158.293 76.82 158.026 76.86C157.773 76.8867 157.58 76.92 157.446 76.96V85H154.466V75.04C155 74.8533 155.626 74.68 156.346 74.52C157.08 74.3467 157.893 74.26 158.786 74.26C158.946 74.26 159.14 74.2733 159.366 74.3C159.593 74.3133 159.82 74.34 160.046 74.38C160.273 74.4067 160.5 74.4467 160.726 74.5C160.953 74.54 161.146 74.5933 161.306 74.66L160.806 77.12ZM162.209 79.82C162.209 78.8867 162.349 78.0733 162.629 77.38C162.922 76.6733 163.302 76.0867 163.769 75.62C164.235 75.1533 164.769 74.8 165.369 74.56C165.982 74.32 166.609 74.2 167.249 74.2C168.742 74.2 169.922 74.66 170.789 75.58C171.655 76.4867 172.089 77.8267 172.089 79.6C172.089 79.7733 172.082 79.9667 172.069 80.18C172.055 80.38 172.042 80.56 172.029 80.72H165.269C165.335 81.3333 165.622 81.82 166.129 82.18C166.635 82.54 167.315 82.72 168.169 82.72C168.715 82.72 169.249 82.6733 169.769 82.58C170.302 82.4733 170.735 82.3467 171.069 82.2L171.469 84.62C171.309 84.7 171.095 84.78 170.829 84.86C170.562 84.94 170.262 85.0067 169.929 85.06C169.609 85.1267 169.262 85.18 168.889 85.22C168.515 85.26 168.142 85.28 167.769 85.28C166.822 85.28 165.995 85.14 165.289 84.86C164.595 84.58 164.015 84.2 163.549 83.72C163.095 83.2267 162.755 82.6467 162.529 81.98C162.315 81.3133 162.209 80.5933 162.209 79.82ZM169.209 78.68C169.195 78.4267 169.149 78.18 169.069 77.94C169.002 77.7 168.889 77.4867 168.729 77.3C168.582 77.1133 168.389 76.96 168.149 76.84C167.922 76.72 167.635 76.66 167.289 76.66C166.955 76.66 166.669 76.72 166.429 76.84C166.189 76.9467 165.989 77.0933 165.829 77.28C165.669 77.4667 165.542 77.6867 165.449 77.94C165.369 78.18 165.309 78.4267 165.269 78.68H169.209Z" fill="#3084C6" fill-opacity="0.8"></path></g><defs><linearGradient id="paint0_linear_491_138" x1="121.581" y1="88.4259" x2="254.294" y2="86.4799" gradientUnits="userSpaceOnUse"><stop stop-color="#3084C7"></stop><stop offset="1" stop-color="#3076C7"></stop></linearGradient><clipPath id="clip0_491_138"><rect width="255" height="255" fill="white"></rect></clipPath></defs></svg> 